<svg id="e421d6a2-a9fa-4e54-b58d-59e535a37f3d" data-name="Camada 1" xmlns="http://www.w3.org/2000/svg" xmlns:xlink="http://www.w3.org/1999/xlink" width="424.13" height="438.26" viewBox="0 0 424.13 438.26"><defs><linearGradient id="f66215a3-7553-45e3-8ac4-427cb84bca1f" x1="7628.06" y1="406.87" x2="7864.28" y2="406.87" gradientTransform="matrix(-1, 0, 0, 1, 7947.85, 0)" gradientUnits="userSpaceOnUse"><stop offset="0" stop-color="#ff9b00"/><stop offset="1" stop-color="#d6d6d6"/></linearGradient><linearGradient id="a4d466c0-df52-4aaf-80c4-31d868c7fa85" x1="1076.7" y1="291.95" x2="1251.97" y2="291.95" gradientTransform="matrix(-1, 0, 0, 1, 1427.88, 0)" gradientUnits="userSpaceOnUse"><stop offset="0" stop-color="#f0f0f0"/><stop offset="0.53" stop-color="#f5f5f5"/><stop offset="1" stop-color="#fff"/></linearGradient><linearGradient id="bcc13529-581a-48d7-a92d-7c1f0834b186" x1="-2208.04" y1="336.9" x2="-2177.94" y2="336.9" gradientTransform="translate(2529.12)" gradientUnits="userSpaceOnUse"><stop offset="0" stop-color="#818181"/><stop offset="0.16" stop-color="#868686"/><stop offset="0.34" stop-color="#949494"/><stop offset="0.54" stop-color="#acacac"/><stop offset="0.75" stop-color="#cdcdcd"/><stop offset="0.96" stop-color="#f7f7f7"/><stop offset="1" stop-color="#fff"/></linearGradient><linearGradient id="f11b9f57-b69f-4c6f-9564-73ad0197cf94" x1="-2355.59" y1="292.71" x2="-2180.32" y2="292.71" gradientTransform="translate(2529.12)" gradientUnits="userSpaceOnUse"><stop offset="0" stop-color="#fff"/><stop offset="1" stop-color="#c9c9c9"/></linearGradient><linearGradient id="a7bf288a-cd6d-4458-ad46-a086973c6805" x1="1100.18" y1="387.43" x2="1347.73" y2="387.43" gradientTransform="matrix(-1, 0, 0, 1, 1427.88, 0)" gradientUnits="userSpaceOnUse"><stop offset="0" stop-color="#c5c5c5"/><stop offset="0.24" stop-color="#cacaca"/><stop offset="0.53" stop-color="#d8d8d8"/><stop offset="0.84" stop-color="#f0f0f0"/><stop offset="1" stop-color="#fff"/></linearGradient><linearGradient id="fe3f63a0-c814-4524-99d5-f378081f7f53" x1="-2449.05" y1="379.17" x2="-2201.37" y2="379.17" gradientTransform="translate(2529.12)" xlink:href="#a4d466c0-df52-4aaf-80c4-31d868c7fa85"/><linearGradient id="a3d872ea-b408-4bdb-8077-788abfe2168a" x1="-2398.11" y1="371.17" x2="-2225.22" y2="371.17" gradientTransform="translate(2529.12)" xlink:href="#a4d466c0-df52-4aaf-80c4-31d868c7fa85"/><linearGradient id="af697bfd-47fb-4f6a-b57e-5aa27ed77c3f" x1="1225.3" y1="393.23" x2="1288.7" y2="393.23" xlink:href="#a4d466c0-df52-4aaf-80c4-31d868c7fa85"/><linearGradient id="b84714b1-01e3-4dda-afa1-f3bef91d4ba4" x1="7652.93" y1="317.78" x2="7741.63" y2="317.78" xlink:href="#f66215a3-7553-45e3-8ac4-427cb84bca1f"/><linearGradient id="a5b26649-bf79-4e0b-9aa8-e0ca4f118eb1" x1="8682.35" y1="3709.94" x2="8764.95" y2="3709.94" gradientTransform="matrix(-0.87, -0.5, 0, 1.15, 7813.95, 368.38)" gradientUnits="userSpaceOnUse"><stop offset="0" stop-color="#5761d7"/><stop offset="0.18" stop-color="#5c66d9"/><stop offset="0.39" stop-color="#6a73df"/><stop offset="0.61" stop-color="#8289e8"/><stop offset="0.85" stop-color="#a3a7f5"/><stop offset="1" stop-color="#bcbeff"/></linearGradient><radialGradient id="ac140d52-e9f7-42ed-aeff-8eb9bd667e85" cx="7669.62" cy="289.6" fx="7637.440531189292" fy="278.2485400000858" r="34.12" gradientTransform="matrix(-1, 0, 0, 1, 7947.85, 0)" gradientUnits="userSpaceOnUse"><stop offset="0" stop-color="#2b237c"/><stop offset="1" stop-color="#180d5b"/></radialGradient><linearGradient id="a4451301-078d-4357-b6dd-2e5304b2c1bb" x1="7652.81" y1="300.32" x2="7735.03" y2="300.32" gradientTransform="matrix(-1, 0, 0, 1, 7947.85, 0)" gradientUnits="userSpaceOnUse"><stop offset="0" stop-color="#c64200"/><stop offset="0.21" stop-color="#ca4701"/><stop offset="0.47" stop-color="#d55502"/><stop offset="0.74" stop-color="#e76d05"/><stop offset="1" stop-color="#ff8b08"/></linearGradient><linearGradient id="addb531d-011c-453d-8f8b-0c272a6d9a58" x1="7666.67" y1="304.67" x2="7738.2" y2="304.67" gradientTransform="matrix(-1, 0, 0, 1, 7947.85, 0)" gradientUnits="userSpaceOnUse"><stop offset="0" stop-color="#ff5f00"/><stop offset="0.11" stop-color="#ff6205"/><stop offset="0.23" stop-color="#fd6a13"/><stop offset="0.36" stop-color="#fb762b"/><stop offset="0.5" stop-color="#f8894c"/><stop offset="0.65" stop-color="#f5a077"/><stop offset="0.8" stop-color="#f0bcab"/><stop offset="0.95" stop-color="#ebdee8"/><stop offset="1" stop-color="#e9e9fd"/></linearGradient></defs><g opacity="0.5"><path d="M332.53,241.69,203.2,168a1.54,1.54,0,0,1-.73-1.16V76.31c0-.4.33-.54.73-.31l129.33,73.66a1.49,1.49,0,0,1,.74,1.15v90.56C333.27,241.78,332.94,241.92,332.53,241.69Z" transform="translate(-43.97 -37.26)" fill="#c76b19"/><path d="M327.58,235.63l-119.43-68a1.31,1.31,0,0,1-.65-1V90.23c0-.36.29-.48.65-.28l119.43,68a1.34,1.34,0,0,1,.65,1v76.36C328.23,235.71,327.94,235.83,327.58,235.63Z" transform="translate(-43.97 -37.26)" fill="#fff"/><polygon points="260.48 123.09 172.11 72.75 172.11 69.52 260.48 119.86 260.48 123.09" fill="#efc492"/><polygon points="226.17 113.91 172.11 83.12 172.11 79.89 226.17 110.68 226.17 113.91" fill="#efc492"/><polygon points="177.41 93.4 172.11 90.38 172.11 87.15 177.41 90.17 177.41 93.4" fill="#efc492"/><polygon points="186.16 98.39 180.87 95.37 180.87 92.14 186.16 95.16 186.16 98.39" fill="#efc492"/><polygon points="203.48 122.79 180.87 109.91 180.87 106.68 203.48 119.56 203.48 122.79" fill="#efc492"/><polygon points="203.48 130.06 180.87 117.17 180.87 113.94 203.48 126.83 203.48 130.06" fill="#efc492"/><polygon points="265.57 165.42 256.77 160.41 256.77 157.18 265.57 162.19 265.57 165.42" fill="#efc492"/><polygon points="203.48 137.32 180.87 124.44 180.87 121.21 203.48 134.09 203.48 137.32" fill="#efc492"/><polygon points="265.57 172.69 242.95 159.8 242.95 156.57 265.57 169.46 265.57 172.69" fill="#efc492"/><polygon points="203.48 144.59 180.87 131.71 180.87 128.48 203.48 141.36 203.48 144.59" fill="#efc492"/><polygon points="265.57 179.95 217.69 152.68 217.69 149.45 265.57 176.72 265.57 179.95" fill="#efc492"/><polygon points="195.1 103.48 189.8 100.46 189.8 97.23 195.1 100.25 195.1 103.48" fill="#efc492"/><polygon points="204.08 108.59 198.78 105.58 198.78 102.35 204.08 105.36 204.08 108.59" fill="#efc492"/><path d="M309.8,144l-4-2.3a1.28,1.28,0,0,1-.64-1v-1.95c0-.35.28-.48.64-.28l4,2.3a1.32,1.32,0,0,1,.64,1v1.95C310.44,144.07,310.15,144.2,309.8,144Z" transform="translate(-43.97 -37.26)" fill="#efc492"/><path d="M318.74,149.09l-4-2.3a1.3,1.3,0,0,1-.64-1v-1.95c0-.35.29-.48.64-.28l4,2.3a1.29,1.29,0,0,1,.63,1v1.95C319.37,149.16,319.09,149.29,318.74,149.09Z" transform="translate(-43.97 -37.26)" fill="#efc492"/><path d="M327.72,154.2l-4-2.29a1.32,1.32,0,0,1-.64-1v-2c0-.35.29-.47.64-.27l4,2.29a1.31,1.31,0,0,1,.63,1v2C328.35,154.28,328.07,154.4,327.72,154.2Z" transform="translate(-43.97 -37.26)" fill="#efc492"/><polygon points="213.56 113.99 208.26 110.97 208.26 107.74 213.56 110.76 213.56 113.99" fill="#efc492"/><polygon points="245.51 132.19 217.28 116.11 217.28 112.88 245.51 128.96 245.51 132.19" fill="#efc492"/><polygon points="177.41 100.67 172.11 97.65 172.11 94.42 177.41 97.44 177.41 100.67" fill="#efc492"/><polygon points="263.8 149.88 180.87 102.64 180.87 99.41 263.8 146.65 263.8 149.88" fill="#efc492"/><polygon points="177.41 107.94 172.11 104.92 172.11 101.69 177.41 104.71 177.41 107.94" fill="#efc492"/><polygon points="177.41 115.2 172.11 112.19 172.11 108.96 177.41 111.97 177.41 115.2" fill="#efc492"/><polygon points="245.51 124.92 234.39 118.59 234.39 115.36 245.51 121.69 245.51 124.92" fill="#efc492"/><polygon points="271.74 129.5 264.45 125.35 264.45 122.12 271.74 126.27 271.74 129.5" fill="#efc492"/><polygon points="275.69 156.65 268.4 152.5 268.4 149.26 275.69 153.42 275.69 156.65" fill="#efc492"/></g><g opacity="0.36"><path d="M467.12,386.9,294.28,288.46a2,2,0,0,1-1-1.54v-121c0-.54.44-.73,1-.42l172.84,98.44a2,2,0,0,1,1,1.54v121C468.1,387,467.66,387.21,467.12,386.9Z" transform="translate(-43.97 -37.26)" fill="#e59170"/><path d="M460.5,378.8,300.89,287.89a1.77,1.77,0,0,1-.86-1.35V184.49c0-.48.39-.65.86-.38L460.5,275a1.77,1.77,0,0,1,.87,1.36V378.43C461.37,378.91,461,379.08,460.5,378.8Z" transform="translate(-43.97 -37.26)" fill="#faf1e8"/><polygon points="385.62 240.93 267.52 173.67 267.52 169.35 385.62 236.62 385.62 240.93" fill="#e9a671"/><polygon points="339.77 228.67 267.52 187.51 267.52 183.2 339.77 224.35 339.77 228.67" fill="#e9a671"/><polygon points="274.6 201.26 267.52 197.23 267.52 192.91 274.6 196.94 274.6 201.26" fill="#e9a671"/><polygon points="286.3 207.93 279.22 203.89 279.22 199.58 286.3 203.61 286.3 207.93" fill="#e9a671"/><polygon points="309.44 240.53 279.22 223.32 279.22 219 309.44 236.22 309.44 240.53" fill="#e9a671"/><polygon points="309.44 250.25 279.22 233.03 279.22 228.71 309.44 245.93 309.44 250.25" fill="#e9a671"/><polygon points="392.42 297.51 380.66 290.81 380.66 286.49 392.42 293.19 392.42 297.51" fill="#e9a671"/><polygon points="309.44 259.96 279.22 242.74 279.22 238.43 309.44 255.64 309.44 259.96" fill="#e9a671"/><polygon points="392.42 307.22 362.2 290 362.2 285.69 392.42 302.9 392.42 307.22" fill="#e9a671"/><polygon points="309.44 269.67 279.22 252.46 279.22 248.14 309.44 265.36 309.44 269.67" fill="#e9a671"/><polygon points="392.42 316.93 328.43 280.48 328.43 276.17 392.42 312.62 392.42 316.93" fill="#e9a671"/><polygon points="298.24 214.73 291.16 210.69 291.16 206.38 298.24 210.41 298.24 214.73" fill="#e9a671"/><polygon points="310.25 221.56 303.16 217.53 303.16 213.21 310.25 217.25 310.25 221.56" fill="#e9a671"/><path d="M436.74,256.34l-5.38-3.06a1.74,1.74,0,0,1-.85-1.34v-2.61c0-.47.38-.63.85-.37l5.38,3.07a1.74,1.74,0,0,1,.85,1.33V256C437.59,256.45,437.21,256.61,436.74,256.34Z" transform="translate(-43.97 -37.26)" fill="#e9a671"/><path d="M448.68,263.15l-5.38-3.07a1.72,1.72,0,0,1-.85-1.33v-2.62c0-.47.38-.63.85-.36l5.38,3.06a1.76,1.76,0,0,1,.85,1.34v2.61C449.53,263.25,449.15,263.41,448.68,263.15Z" transform="translate(-43.97 -37.26)" fill="#e9a671"/><path d="M460.68,270l-5.37-3.06a1.77,1.77,0,0,1-.86-1.34V263c0-.47.39-.64.86-.37l5.37,3.07a1.74,1.74,0,0,1,.86,1.33v2.62C461.54,270.09,461.15,270.25,460.68,270Z" transform="translate(-43.97 -37.26)" fill="#e9a671"/><polygon points="322.91 228.78 315.83 224.74 315.83 220.43 322.91 224.46 322.91 228.78" fill="#e9a671"/><polygon points="365.62 253.1 327.89 231.61 327.89 227.3 365.62 248.78 365.62 253.1" fill="#e9a671"/><polygon points="274.6 210.97 267.52 206.94 267.52 202.62 274.6 206.66 274.6 210.97" fill="#e9a671"/><polygon points="390.06 276.74 279.22 213.6 279.22 209.29 390.06 272.42 390.06 276.74" fill="#e9a671"/><polygon points="274.6 220.69 267.52 216.65 267.52 212.34 274.6 216.37 274.6 220.69" fill="#e9a671"/><polygon points="274.6 230.4 267.52 226.37 267.52 222.05 274.6 226.08 274.6 230.4" fill="#e9a671"/><polygon points="365.62 243.39 350.75 234.92 350.75 230.61 365.62 239.07 365.62 243.39" fill="#e9a671"/><polygon points="400.66 249.5 390.92 243.95 390.92 239.64 400.66 245.19 400.66 249.5" fill="#e9a671"/><polygon points="405.94 285.78 396.2 280.24 396.2 275.92 405.94 281.47 405.94 285.78" fill="#e9a671"/></g><path d="M217.79,258.84,45,160.39a2,2,0,0,1-1-1.53v-121c0-.54.44-.72,1-.42l172.84,98.45a2,2,0,0,1,1,1.54v121C218.77,259,218.33,259.15,217.79,258.84Z" transform="translate(-43.97 -37.26)" fill="#e59170"/><path d="M211.17,250.74,51.56,159.83a1.79,1.79,0,0,1-.86-1.35V56.42c0-.47.39-.64.86-.37L211.17,147a1.77,1.77,0,0,1,.87,1.36V250.37C212,250.85,211.65,251,211.17,250.74Z" transform="translate(-43.97 -37.26)" fill="#faf1e8"/><polygon points="136.29 112.87 18.19 45.6 18.19 41.29 136.29 108.56 136.29 112.87" fill="#e9a671"/><polygon points="90.44 100.61 18.19 59.45 18.19 55.14 90.44 96.29 90.44 100.61" fill="#e9a671"/><polygon points="25.27 73.2 18.19 69.17 18.19 64.85 25.27 68.88 25.27 73.2" fill="#e9a671"/><polygon points="36.97 79.86 29.89 75.83 29.89 71.51 36.97 75.55 36.97 79.86" fill="#e9a671"/><polygon points="60.12 112.47 29.89 95.26 29.89 90.94 60.12 108.16 60.12 112.47" fill="#e9a671"/><polygon points="60.12 122.18 29.89 104.97 29.89 100.65 60.12 117.87 60.12 122.18" fill="#e9a671"/><polygon points="143.09 169.44 131.33 162.75 131.33 158.43 143.09 165.13 143.09 169.44" fill="#e9a671"/><polygon points="60.12 131.9 29.89 114.68 29.89 110.36 60.12 127.58 60.12 131.9" fill="#e9a671"/><polygon points="143.09 179.16 112.87 161.94 112.87 157.63 143.09 174.84 143.09 179.16" fill="#e9a671"/><polygon points="60.12 141.61 29.89 124.39 29.89 120.08 60.12 137.29 60.12 141.61" fill="#e9a671"/><polygon points="143.09 188.87 79.1 152.42 79.1 148.1 143.09 184.55 143.09 188.87" fill="#e9a671"/><polygon points="48.91 86.67 41.83 82.63 41.83 78.32 48.91 82.35 48.91 86.67" fill="#e9a671"/><polygon points="60.92 93.5 53.83 89.47 53.83 85.15 60.92 89.19 60.92 93.5" fill="#e9a671"/><path d="M187.41,128.28,182,125.22a1.76,1.76,0,0,1-.85-1.34v-2.61c0-.47.38-.64.85-.37l5.38,3.07a1.72,1.72,0,0,1,.85,1.33v2.62C188.26,128.39,187.88,128.55,187.41,128.28Z" transform="translate(-43.97 -37.26)" fill="#e9a671"/><path d="M199.35,135.08,194,132a1.76,1.76,0,0,1-.85-1.34v-2.61c0-.47.38-.63.85-.37l5.38,3.07a1.74,1.74,0,0,1,.85,1.33v2.62C200.2,135.19,199.82,135.35,199.35,135.08Z" transform="translate(-43.97 -37.26)" fill="#e9a671"/><path d="M211.35,141.92,206,138.86a1.77,1.77,0,0,1-.86-1.34v-2.61c0-.47.39-.64.86-.37l5.37,3.06a1.77,1.77,0,0,1,.86,1.34v2.61C212.21,142,211.82,142.19,211.35,141.92Z" transform="translate(-43.97 -37.26)" fill="#e9a671"/><polygon points="73.58 100.71 66.5 96.68 66.5 92.36 73.58 96.4 73.58 100.71" fill="#e9a671"/><polygon points="116.29 125.04 78.56 103.55 78.56 99.23 116.29 120.72 116.29 125.04" fill="#e9a671"/><polygon points="25.27 82.91 18.19 78.88 18.19 74.56 25.27 78.59 25.27 82.91" fill="#e9a671"/><polygon points="140.73 148.68 29.89 85.54 29.89 81.23 140.73 144.36 140.73 148.68" fill="#e9a671"/><polygon points="25.27 92.62 18.19 88.59 18.19 84.27 25.27 88.31 25.27 92.62" fill="#e9a671"/><polygon points="25.27 102.34 18.19 98.3 18.19 93.99 25.27 98.02 25.27 102.34" fill="#e9a671"/><polygon points="116.29 115.33 101.42 106.86 101.42 102.55 116.29 111.01 116.29 115.33" fill="#e9a671"/><polygon points="151.33 121.44 141.59 115.89 141.59 111.57 151.33 117.12 151.33 121.44" fill="#e9a671"/><polygon points="156.62 157.72 146.87 152.17 146.87 147.86 156.62 153.41 156.62 157.72" fill="#e9a671"/><path d="M225,473.85,84.8,392.94a2.48,2.48,0,0,1,0-4.28l87.08-50.27.29-.17,146.38,84.52a2.46,2.46,0,0,1,0,4.27l-81.12,46.84a12.49,12.49,0,0,1-12.48,0ZM85.37,389.65a1.33,1.33,0,0,0,0,2.3l140.15,80.92a11.37,11.37,0,0,0,11.34,0L318,426a1.31,1.31,0,0,0,.67-1.15,1.33,1.33,0,0,0-.67-1.16L172.17,339.54Z" transform="translate(-43.97 -37.26)" fill="url(#f66215a3-7553-45e3-8ac4-427cb84bca1f)"/><path d="M175.94,302.85l19-112.63-1.53-.65,2.3-1.31h0a1.65,1.65,0,0,1,1.77.12L349.18,276a4.3,4.3,0,0,1,2,3.86L332,393.37a1.41,1.41,0,0,1-.8,1.16h0l-2.24,1.3-.39-2.1.13,0L177.91,306.7A4.27,4.27,0,0,1,175.94,302.85Z" transform="translate(-43.97 -37.26)" fill="url(#a4d466c0-df52-4aaf-80c4-31d868c7fa85)"/><path d="M348.33,279.07l2.5-1.1a3.49,3.49,0,0,1,.32,1.88L332,393.37a1.41,1.41,0,0,1-.8,1.16h0l-2.24,1.3-.39-2.1.13,0-7.63-4.41Z" transform="translate(-43.97 -37.26)" fill="url(#bcc13529-581a-48d7-a92d-7c1f0834b186)"/><path d="M175.52,308.07l151.73,87.6c1.17.67,2.17.28,2.38-.93l19.14-113.53a4.29,4.29,0,0,0-2-3.85l-151.73-87.6c-1.17-.68-2.17-.29-2.38.93L173.55,304.21A4.33,4.33,0,0,0,175.52,308.07Z" transform="translate(-43.97 -37.26)" fill="url(#f11b9f57-b69f-4c6f-9564-73ad0197cf94)"/><polygon points="153.09 159.75 299.34 244.19 281.2 351.11 135.05 266.73 153.09 159.75" fill="#ffd7b0"/><path d="M80.15,361.82l8.28,4.32,83-47.94a6,6,0,0,1,5.42.23l143.2,82.68c1.37-.77,7.62-3.78,7.62-3.78l-3,7.9h0a1.76,1.76,0,0,1-.85.94l-87.44,50.49a6,6,0,0,1-5.42-.23L84.4,371.82a2.62,2.62,0,0,1-1.23-1.31h0Z" transform="translate(-43.97 -37.26)" fill="url(#a7bf288a-cd6d-4458-ad46-a086973c6805)"/><path d="M81.43,363.18l150.18,86.71a6.22,6.22,0,0,0,5.56.23l89.62-51.75c1.42-.82,1.24-2.25-.4-3.2L176.21,308.46a6.19,6.19,0,0,0-5.56-.23L81,360C79.61,360.79,79.79,362.23,81.43,363.18Z" transform="translate(-43.97 -37.26)" fill="url(#fe3f63a0-c814-4524-99d5-f378081f7f53)"/><path d="M276.91,431.13v-1.65c0-.15-.09-.23-.21-.16l-5.81,3.36a.47.47,0,0,0-.21.4v1.65c0,.15.09.23.21.16l5.81-3.36A.47.47,0,0,0,276.91,431.13Z" transform="translate(-43.97 -37.26)" fill="#ff8b08"/><path d="M268.23,436.14V434.5c0-.16-.1-.23-.22-.16l-5.81,3.35a.53.53,0,0,0-.21.41v1.64c0,.16.1.23.21.16l5.81-3.35A.51.51,0,0,0,268.23,436.14Z" transform="translate(-43.97 -37.26)" fill="#ff8b08"/><path d="M303.42,393.53l-124.8-72.06a2.69,2.69,0,0,0-2.69,0l-44.44,25.72a1,1,0,0,0,0,1.66l124.74,72a2.69,2.69,0,0,0,2.69,0l44.5-25.68A1,1,0,0,0,303.42,393.53Z" transform="translate(-43.97 -37.26)" fill="url(#a3d872ea-b408-4bdb-8077-788abfe2168a)"/><path d="M303.42,395.19l-.45.26-124.35-71.8a2.69,2.69,0,0,0-2.69,0l-44,25.45-.45-.25a1,1,0,0,1,0-1.66l44.44-25.72a2.69,2.69,0,0,1,2.69,0l124.8,72.06A1,1,0,0,1,303.42,395.19Z" transform="translate(-43.97 -37.26)" fill="#b2b2b2"/><polygon points="128.61 290.73 237.02 353.32 241.84 350.54 133.43 287.95 128.61 290.73" fill="#ff8b08"/><polygon points="116.79 297.55 218.47 356.26 223.29 353.48 121.61 294.77 116.79 297.55" fill="#ff8b08"/><polygon points="109.09 302 228.81 371.12 233.64 368.34 113.92 299.21 109.09 302" fill="#ff8b08"/><polygon points="101.4 306.44 221.12 375.56 225.94 372.78 106.22 303.66 101.4 306.44" fill="#ff8b08"/><polygon points="93.7 310.89 213.42 380.01 218.24 377.22 98.52 308.1 93.7 310.89" fill="#ff8b08"/><polygon points="243.57 357.1 248.39 359.89 253.21 357.1 248.39 354.32 243.57 357.1" fill="#ff8b08"/><polygon points="226.57 360.93 236.57 366.71 241.39 363.93 231.39 358.15 226.57 360.93" fill="#ff8b08"/><path d="M173.81,411l-33.65-19.42c-1.31-.76-1.31-2,0-2.75l23-13.29a5.25,5.25,0,0,1,4.76,0l33.65,19.43c1.31.76,1.31,2,0,2.75l-23,13.28A5.27,5.27,0,0,1,173.81,411Z" transform="translate(-43.97 -37.26)" fill="url(#af697bfd-47fb-4f6a-b57e-5aa27ed77c3f)"/><path d="M201.59,396.05l-33.65-19.42a5.25,5.25,0,0,0-4.76,0l-23,13.28a2.12,2.12,0,0,0-.82.81c-.35-.66-.09-1.41.82-1.93l23-13.29a5.25,5.25,0,0,1,4.76,0l33.65,19.43c.91.52,1.17,1.27.83,1.94A2.17,2.17,0,0,0,201.59,396.05Z" transform="translate(-43.97 -37.26)" fill="#d8af91"/><path d="M275.94,343.27,207.05,303.5a1.52,1.52,0,0,1-.83-1.29,1.84,1.84,0,0,1,1.05-1.53l14.31-8.26a3.94,3.94,0,0,1,3.62-.12l68.88,39.76a1.53,1.53,0,0,1,.84,1.3,1.84,1.84,0,0,1-1.05,1.52l-14.32,8.27a4.09,4.09,0,0,1-2,.5A3.2,3.2,0,0,1,275.94,343.27Zm-53.72-49.76-14.32,8.27c-.34.2-.41.37-.41.43s.06.12.2.2l68.88,39.77a2.68,2.68,0,0,0,2.35-.13l14.32-8.26c.34-.2.41-.38.41-.43s-.06-.12-.2-.2l-68.88-39.77a2,2,0,0,0-1-.21A2.87,2.87,0,0,0,222.22,293.51Z" transform="translate(-43.97 -37.26)" fill="url(#b84714b1-01e3-4dda-afa1-f3bef91d4ba4)"/><path d="M235,269.37a20.45,20.45,0,0,1,5,4.26c2.12-6.79,8.57-8.9,16.21-4.49,6.32,3.64,11.82,10.82,14.73,18.42a6.8,6.8,0,0,1,3.18,1,16.51,16.51,0,0,1,7.47,12.93c0,.1,0,.2,0,.3a8.93,8.93,0,0,1,3.84,1.28c5.28,3.05,9.55,10.45,9.55,16.54s-4.27,8.55-9.55,5.51L235,296c-6.37-3.68-11.53-12.62-11.53-20S228.67,265.7,235,269.37Z" transform="translate(-43.97 -37.26)" fill="url(#a5b26649-bf79-4e0b-9aa8-e0ca4f118eb1)"/><path d="M235,269.37a18.84,18.84,0,0,1,3,2.23l5.64-3.26h0c3.1-2.18,7.58-2.09,12.58.8,6.32,3.64,11.82,10.82,14.73,18.42a6.8,6.8,0,0,1,3.18,1,16.51,16.51,0,0,1,7.47,12.93c0,.1,0,.2,0,.3a8.93,8.93,0,0,1,3.84,1.28c5.28,3.05,9.55,10.45,9.55,16.54,0,3-1.05,5.14-2.75,6.15h0l0,0h0l-13.82,8-3-14.52L235,296c-6.37-3.68-11.53-12.62-11.53-20S228.67,265.7,235,269.37Z" transform="translate(-43.97 -37.26)" fill="url(#ac140d52-e9f7-42ed-aeff-8eb9bd667e85)"/><path d="M212.82,276.74l14-8.14h0c2.09-1.25,5-1.09,8.22.76a18.84,18.84,0,0,1,3,2.23l5.64-3.26h0c3.1-2.18,7.58-2.09,12.58.8,6.32,3.64,11.82,10.82,14.73,18.42a6.8,6.8,0,0,1,3.18,1,16.51,16.51,0,0,1,7.47,12.93c0,.1,0,.2,0,.3a8.93,8.93,0,0,1,3.84,1.28c5.28,3.05,9.55,10.45,9.55,16.54,0,3-1.05,5.14-2.75,6.15h0l0,0h0l-13.82,8-3-14.52L235,296c-5.16-3-9.53-9.42-11-15.66Z" transform="translate(-43.97 -37.26)" fill="url(#a4451301-078d-4357-b6dd-2e5304b2c1bb)"/><path d="M221.17,277.42a20.67,20.67,0,0,1,5.05,4.26c2.11-6.8,8.57-8.9,16.2-4.5,6.32,3.65,11.83,10.82,14.74,18.42a7,7,0,0,1,3.18,1,16.5,16.5,0,0,1,7.46,12.93c0,.1,0,.19,0,.29a9,9,0,0,1,3.84,1.29c5.27,3,9.55,10.45,9.55,16.53s-4.28,8.56-9.55,5.52L221.17,304c-6.36-3.67-11.52-12.61-11.52-20S214.81,273.75,221.17,277.42Z" transform="translate(-43.97 -37.26)" fill="url(#addb531d-011c-453d-8f8b-0c272a6d9a58)"/></svg>