<svg xmlns="http://www.w3.org/2000/svg" width="302.649" height="200.642" viewBox="0 0 302.649 200.642"><defs><style>.a{fill:#dedede;}.b{fill:#18b1b8;}.c{fill:#16110d;}.d{fill:#f4f4f4;}</style></defs><g transform="translate(-265.717 -105.061)"><g transform="translate(265.717 105.061)"><g transform="translate(23.683 86.782)"><path class="a" d="M287.486,226.042H281.83v-2.431a18.307,18.307,0,0,1,8.4-14.544l4.107-2.371c2.735-1.582,5.566-1.759,7.765-.489s3.458,3.81,3.458,6.97c0,1.179.317,1.89.632,2.072s1.088.1,2.109-.489l4.518-2.607a12.72,12.72,0,0,0,5.568-9.646,18.312,18.312,0,0,1,8.4-14.544l3.9-2.255c2.735-1.58,5.568-1.759,7.765-.488s3.458,3.808,3.458,6.968c0,1.18.317,1.892.632,2.072s1.088.1,2.111-.489l3.287-1.9a12.715,12.715,0,0,0,5.569-9.645,18.31,18.31,0,0,1,8.4-14.544l3.9-2.253c2.734-1.58,5.565-1.758,7.764-.488s3.458,3.808,3.458,6.968v3.142h-5.654v-3.142c0-1.18-.317-1.89-.63-2.071s-1.088-.1-2.111.488l-3.9,2.255a12.708,12.708,0,0,0-5.569,9.645,18.314,18.314,0,0,1-8.4,14.544l-3.285,1.9c-2.737,1.579-5.568,1.756-7.767.488s-3.458-3.81-3.458-6.97c0-1.179-.318-1.89-.632-2.072s-1.088-.1-2.109.489l-3.9,2.256a12.709,12.709,0,0,0-5.571,9.645,18.309,18.309,0,0,1-8.4,14.544l-4.517,2.607c-2.737,1.58-5.566,1.758-7.765.489s-3.458-3.81-3.458-6.97c0-1.179-.318-1.89-.632-2.072s-1.088-.1-2.111.489l-4.107,2.372a12.708,12.708,0,0,0-5.569,9.645Z" transform="translate(-281.83 -164.104)"/></g><g transform="translate(111.321 17.505)"><path class="b" d="M342.037,182.64l7.69,49.493L470.634,117.458Z" transform="translate(-341.182 -116.742)"/><path class="c" d="M349.427,233.746l-7.972-51.314.5-.256,128.605-65.2.966,1.208L350.5,232.961Zm-6.263-50.437,7.376,47.469L466.508,120.79Z" transform="translate(-341.455 -116.971)"/></g><path class="c" d="M362.962,171.521l-16.247,35.04.242,1.555,35.92-26.339Z" transform="translate(-227.662 -73.837)"/><path class="b" d="M483.185,117.458,315.323,158.622l39.264,24.018Z" transform="translate(-242.411 -99.237)"/><path class="b" d="M462.8,117.458,407.167,226.224l-48.461-29.375Z" transform="translate(-222.028 -99.237)"/><path class="a" d="M462.35,123.069,408.105,229.118l-48.46-29.376L461.314,122.2A.693.693,0,0,1,462.35,123.069Z" transform="translate(-221.587 -97.077)"/><path class="a" d="M354.253,181.938l1.71.878.483,3.11L469.42,128.663l12.656-10.643-16.159,8.191-151.7,37.2,39.264,24.018,1.508-.765Z" transform="translate(-242.931 -98.973)"/><g transform="translate(70.916 17.505)"><path class="c" d="M484.445,118.179l-.966-1.208h0L354.557,148.585h0l-38.781,9.51-1.812.444,41.226,25.221,47.525-24.089h0l72.245-36.622,1.67-.858-35.529,27.1-61.849,47.17-.908.692,50.15,30.4,8.224-16.077h0l47.722-93.294Zm-129.184,63.8-37.3-22.818,39.966-9.8,42.424,9.764Zm47.255-23.952-41.233-9.491,87.127-21.365,29.02-7.115Zm25.36,67.327L381.107,197l32.465-24.759,22.216,37.644Zm8.75-17.1-21.809-36.956,41.747-31.839,25.006-19.071Z" transform="translate(-313.965 -116.971)"/></g><g transform="translate(160.217 88.911)"><g transform="translate(0.966 2.688)"><path class="b" d="M383.849,167.381l-8.471,10.008,13.274,12.717,8.409-10.149Zm4.524,17.758-9.026-8.521,4.634-5.547,8.988,8.434Z" transform="translate(-375.378 -167.381)"/><path class="c" d="M387.476,184.727l-10.236-9.774,5.668-6.7,10.193,9.68Zm-9.17-9.832,9.1,8.693,4.63-5.588-9.07-8.613Z" transform="translate(-374.503 -166.97)"/></g><path class="c" d="M388.842,189.98l-14.121-13.531,9.223-10.9L398,178.93Zm-12.523-13.613,12.426,11.9,7.661-9.245-12.37-11.775Z" transform="translate(-374.721 -165.552)"/></g><g transform="translate(151.818 68.695)"><path class="c" d="M399.162,164.881c0,7.521-6.688,13.638-14.907,13.638-7.026,0-12.917-4.473-14.485-10.465l-.763.581c1.806,6.2,7.949,10.777,15.248,10.777,8.712,0,15.8-6.519,15.8-14.531a14.5,14.5,0,0,0-8.97-13.083l-.808.617A13.667,13.667,0,0,1,399.162,164.881Z" transform="translate(-369.007 -151.798)"/><path class="c" d="M395.115,164.187c0,5.863-5.218,10.633-11.631,10.633-6.059,0-11.046-4.261-11.578-9.677l-.813.62c.839,5.61,6.069,9.948,12.391,9.948,6.9,0,12.521-5.169,12.521-11.523a11.664,11.664,0,0,0-8.535-10.913l-.888.678C391.494,155.2,395.115,159.308,395.115,164.187Z" transform="translate(-368.026 -151.105)"/></g><g transform="translate(29.248 88.533)"><path class="c" d="M291.272,227.233h-5.656V224.8a18.3,18.3,0,0,1,8.4-14.542l4.107-2.372c2.735-1.581,5.566-1.759,7.765-.489s3.458,3.81,3.458,6.97c0,1.179.318,1.89.632,2.072s1.088.1,2.109-.489l4.518-2.607a12.718,12.718,0,0,0,5.568-9.646,18.314,18.314,0,0,1,8.4-14.544l3.9-2.255c2.735-1.58,5.568-1.758,7.765-.488s3.46,3.808,3.46,6.97c0,1.179.316,1.89.63,2.071s1.088.1,2.111-.489l3.286-1.9a12.71,12.71,0,0,0,5.569-9.645,18.31,18.31,0,0,1,8.4-14.544l3.9-2.252c2.734-1.582,5.565-1.759,7.764-.489s3.458,3.81,3.458,6.97v3.142h-5.654V173.1c0-1.18-.318-1.892-.631-2.072s-1.088-.1-2.111.488l-3.9,2.255a12.708,12.708,0,0,0-5.569,9.645,18.312,18.312,0,0,1-8.4,14.544l-3.285,1.9c-2.737,1.579-5.568,1.756-7.765.488s-3.46-3.808-3.46-6.968c0-1.18-.318-1.89-.632-2.072s-1.088-.1-2.109.488l-3.9,2.256a12.71,12.71,0,0,0-5.569,9.645,18.31,18.31,0,0,1-8.4,14.544l-4.517,2.607c-2.737,1.58-5.566,1.758-7.765.489s-3.458-3.81-3.458-6.97c0-1.179-.318-1.89-.632-2.072s-1.088-.1-2.111.489l-4.107,2.372a12.708,12.708,0,0,0-5.569,9.645Z" transform="translate(-285.616 -165.295)"/></g><g transform="translate(0 160.846)"><path class="a" d="M269.959,244.72h-4.242v-1.155a9.413,9.413,0,0,1,4.38-7.587l1.953-1.127a4.109,4.109,0,0,1,6.5,3.752c0,.056,0,.107.006.151q.06-.029.132-.071l2.149-1.239a5.246,5.246,0,0,0,2.259-3.914,9.415,9.415,0,0,1,4.38-7.587l1.856-1.071a4.11,4.11,0,0,1,6.5,3.752c0,.057,0,.107,0,.151.041-.019.085-.043.134-.071l1.562-.9a5.241,5.241,0,0,0,2.259-3.914,9.416,9.416,0,0,1,4.382-7.587l1.855-1.071a4.109,4.109,0,0,1,6.5,3.752v1.495H308.29v-1.495c0-.056,0-.106,0-.151-.041.021-.085.044-.135.072l-1.853,1.072a5.243,5.243,0,0,0-2.261,3.914,9.412,9.412,0,0,1-4.38,7.586l-1.562.9a4.109,4.109,0,0,1-6.5-3.752c0-.056,0-.106,0-.151-.041.021-.085.044-.135.072l-1.856,1.071a5.246,5.246,0,0,0-2.259,3.914,9.41,9.41,0,0,1-4.38,7.586l-2.147,1.241a4.11,4.11,0,0,1-6.5-3.754c0-.057,0-.106,0-.153l-.134.072-1.953,1.129a5.241,5.241,0,0,0-2.259,3.914Z" transform="translate(-265.717 -214.493)"/></g><g transform="translate(149.912)"><path class="a" d="M370.82,129.848h-3.11v-.955a7.565,7.565,0,0,1,3.522-6.1l1.614-.932a3.2,3.2,0,0,1,5.078,2.931,1.248,1.248,0,0,0,.062.432c.018-.043.156-.082.35-.194L380.111,124a4.558,4.558,0,0,0,1.965-3.406,7.578,7.578,0,0,1,3.52-6.1l1.537-.885a3.2,3.2,0,0,1,5.075,2.931,1.188,1.188,0,0,0,.063.432c.016-.043.154-.082.348-.194l1.292-.745a4.558,4.558,0,0,0,1.967-3.407,7.58,7.58,0,0,1,3.52-6.1l1.535-.885a3.2,3.2,0,0,1,5.077,2.932v1.235H402.9v-1.235a1.2,1.2,0,0,0-.062-.432c-.016.041-.154.081-.35.194l-1.533.885a4.561,4.561,0,0,0-1.967,3.407,7.565,7.565,0,0,1-3.522,6.1l-1.292.747a3.2,3.2,0,0,1-5.075-2.932,1.263,1.263,0,0,0-.062-.434c-.018.044-.156.084-.35.2l-1.536.885a4.57,4.57,0,0,0-1.967,3.407,7.565,7.565,0,0,1-3.522,6.1l-1.774,1.024a3.2,3.2,0,0,1-5.077-2.931,1.244,1.244,0,0,0-.062-.434c-.018.044-.157.084-.353.2l-1.612.933a4.56,4.56,0,0,0-1.967,3.406Z" transform="translate(-367.71 -105.061)"/></g></g><g transform="translate(445.862 200.597)"><g transform="translate(2.099 0)"><g transform="translate(0 21.259)"><path class="b" d="M353.344,299.69l-39.706-22.925c-2.953-1.7-2.582-4.681.828-6.651l56.922-32.864c3.41-1.968,8.568-2.183,11.521-.478L422.614,259.7c2.953,1.7,2.582,4.683-.826,6.651l-56.923,32.864C361.454,301.182,356.3,301.4,353.344,299.69Z" transform="translate(-310.932 -234.898)"/><path class="a" d="M353.345,302.575,313.638,279.65c-2.953-1.7-2.582-4.681.828-6.651l56.923-32.864c3.409-1.968,8.566-2.183,11.519-.478l39.707,22.925c2.951,1.705,2.582,4.683-.828,6.651L364.864,302.1C361.454,304.067,356.3,304.28,353.345,302.575Z" transform="translate(-310.932 -233.542)"/><path class="c" d="M358.588,301.8a10.908,10.908,0,0,1-5.372-1.257L313.51,277.614a4.118,4.118,0,0,1-2.35-3.506c0-1.618,1.158-3.214,3.178-4.379l56.922-32.865c3.663-2.114,9.035-2.325,12.233-.478L423.2,259.312a4.118,4.118,0,0,1,2.35,3.506c0,1.618-1.158,3.215-3.178,4.38l-56.923,32.864A14.039,14.039,0,0,1,358.588,301.8Zm-4.659-2.491c2.749,1.587,7.6,1.376,10.806-.478l56.925-32.864c1.565-.9,2.463-2.05,2.463-3.145a2.815,2.815,0,0,0-1.637-2.272L382.78,237.622c-2.75-1.587-7.6-1.374-10.809.478l-56.922,32.864c-1.565.9-2.463,2.05-2.463,3.145a2.813,2.813,0,0,0,1.636,2.272Z" transform="translate(-311.16 -235.129)"/></g><g transform="translate(40.017 60.131)"><path class="b" d="M352.94,276.628l-13.675-7.9,11.516-6.649,13.676,7.9Z" transform="translate(-337.973 -261.338)"/><path class="c" d="M353.353,277.612l-14.967-8.641,12.808-7.395,14.967,8.641Zm-12.383-8.641,12.383,7.149,10.224-5.9-12.383-7.149Z" transform="translate(-338.386 -261.576)"/><g transform="translate(5.812 3.354)"><path class="d" d="M350.926,272.2l-7.708-4.45,5.862-3.384,7.708,4.45Z" transform="translate(-341.927 -263.619)"/><path class="c" d="M351.338,273.185l-9-5.2,7.152-4.13,9,5.2Zm-6.414-5.2,6.414,3.7,4.57-2.637-6.416-3.705Z" transform="translate(-342.34 -263.858)"/></g></g><g transform="translate(21.993 58.359)"><path class="c" d="M339.62,276.36a19.307,19.307,0,0,1-9.439-2.253c-2.616-1.511-4.058-3.55-4.058-5.741s1.442-4.23,4.058-5.741c5.2-3.006,13.674-3.006,18.88,0,2.616,1.511,4.057,3.55,4.057,5.741s-1.44,4.23-4.057,5.741h0A19.313,19.313,0,0,1,339.62,276.36Zm0-15a18.28,18.28,0,0,0-8.935,2.133c-2.291,1.324-3.553,3.053-3.553,4.868s1.261,3.545,3.553,4.868c4.927,2.844,12.943,2.844,17.87,0h0c2.291-1.323,3.554-3.051,3.554-4.868s-1.263-3.544-3.554-4.868A18.276,18.276,0,0,0,339.62,261.365Z" transform="translate(-326.123 -260.37)"/><g transform="translate(3.287 1.898)"><path class="c" d="M338.57,273.859a14.562,14.562,0,0,1-7.115-1.7c-2-1.152-3.1-2.716-3.1-4.4s1.1-3.247,3.1-4.4a15.751,15.751,0,0,1,14.231,0c2,1.152,3.1,2.715,3.1,4.4s-1.1,3.248-3.1,4.4h0A14.558,14.558,0,0,1,338.57,273.859Zm0-11.2a13.519,13.519,0,0,0-6.611,1.579c-1.671.966-2.591,2.218-2.591,3.526s.92,2.562,2.591,3.526a14.634,14.634,0,0,0,13.222,0c1.671-.964,2.591-2.217,2.591-3.526s-.92-2.56-2.591-3.526A13.519,13.519,0,0,0,338.57,262.654Z" transform="translate(-328.359 -261.661)"/></g></g><g transform="translate(38.896 47.133)"><path class="b" d="M359.185,267.655l-.544-.944,2.237-1.293c.354-.2.556-.453.556-.683s-.2-.479-.556-.683l-.3-.171a3.889,3.889,0,0,0-3.458,0l-.235.137a4.957,4.957,0,0,1-4.548,0l-.294-.169a1.753,1.753,0,0,1,0-3.256l.237-.137c.353-.2.556-.453.556-.683s-.2-.479-.556-.683l-.178-.1a3.885,3.885,0,0,0-3.457,0l-.237.137a4.957,4.957,0,0,1-4.548,0,1.752,1.752,0,0,1,0-3.254l.235-.137c.354-.2.557-.454.557-.683s-.2-.479-.557-.683l-.235-.137a3.879,3.879,0,0,0-3.458,0l-2.237,1.292-.545-.944,2.237-1.292a4.96,4.96,0,0,1,4.549,0l.235.137a1.753,1.753,0,0,1,0,3.254l-.235.137c-.354.2-.557.453-.557.682s.2.481.557.685a3.879,3.879,0,0,0,3.458,0l.235-.137a4.957,4.957,0,0,1,4.548,0l.176.1a1.753,1.753,0,0,1,0,3.256l-.235.135c-.353.2-.556.453-.556.684s.2.481.556.685l.294.168a3.888,3.888,0,0,0,3.458,0l.237-.137a4.962,4.962,0,0,1,4.548,0l.294.171a1.752,1.752,0,0,1,0,3.254Z" transform="translate(-337.623 -252.732)"/></g><g transform="translate(45.271 48.713)"><path class="c" d="M366.516,270.8l-.62-1.074,2.547-1.471c.4-.232.634-.516.634-.778s-.231-.547-.634-.779l-.335-.194a4.43,4.43,0,0,0-3.939,0l-.268.154a5.643,5.643,0,0,1-5.18,0l-.335-.191a2,2,0,0,1,0-3.708l.269-.156c.4-.232.632-.516.632-.778s-.231-.547-.634-.779l-.2-.116a4.427,4.427,0,0,0-3.938,0l-.269.154a5.643,5.643,0,0,1-5.18,0,2,2,0,0,1,0-3.707l.269-.154c.4-.232.633-.516.633-.779s-.231-.545-.633-.779l-.269-.154a4.418,4.418,0,0,0-3.938,0l-2.549,1.47-.62-1.074,2.547-1.47a5.642,5.642,0,0,1,5.18,0l.269.154a2,2,0,0,1,0,3.707l-.269.156c-.4.232-.634.516-.634.778s.231.547.634.779a4.421,4.421,0,0,0,3.939,0l.269-.156a5.648,5.648,0,0,1,5.178,0l.2.118a2,2,0,0,1,0,3.707l-.269.154c-.4.232-.632.516-.632.779s.231.547.634.779l.334.193a4.433,4.433,0,0,0,3.941,0l.268-.154a5.647,5.647,0,0,1,5.18,0l.335.194a2,2,0,0,1,0,3.705Z" transform="translate(-341.96 -253.808)"/></g><g transform="translate(39.177)"><g transform="translate(0.001 2.716)"><path class="a" d="M361.016,243.956a27.277,27.277,0,0,1-5.434-.294,12.369,12.369,0,0,1-4.23-1.37,5.487,5.487,0,0,1-2.472-2.654,3.8,3.8,0,0,1,.481-3.5,10.191,10.191,0,0,1,3.77-3.416,25.868,25.868,0,0,1,8.172-2.8,30.186,30.186,0,0,1,9.032-.438,17.046,17.046,0,0,1,6.436,1.83,5.766,5.766,0,0,1,2.462,2.494,3.883,3.883,0,0,1-.051,3.239l3.864-1.427,3.655,2.111-16.652,6.217q-3.477,1.3-3.78,1.476a.871.871,0,0,0-.532.789,1.026,1.026,0,0,0,.613.814,11.358,11.358,0,0,0,4.088.922,27.516,27.516,0,0,0,8.071-.4,22.689,22.689,0,0,0,7.029-2.49,10.584,10.584,0,0,0,4.627-4.687,6.143,6.143,0,0,0-.47-5.746,15.112,15.112,0,0,0-5.873-5.446,31.792,31.792,0,0,0-10.972-3.751,36.936,36.936,0,0,0-12.548.166,34.41,34.41,0,0,0-11.135,3.916q-5.007,2.89-6.447,6.235a6.549,6.549,0,0,0,.951,6.719,22.891,22.891,0,0,0,7.4,6.264,34.79,34.79,0,0,0,10.769,4.14,33.679,33.679,0,0,0,9.788.6l3.7,2.134a34.873,34.873,0,0,1-7.947.462,43.579,43.579,0,0,1-9.554-1.446,39.91,39.91,0,0,1-9.714-4.11,30.564,30.564,0,0,1-7.205-5.5,10.574,10.574,0,0,1-3.023-5.793,7.925,7.925,0,0,1,1.317-5.456,19.4,19.4,0,0,1,6.622-5.8,39.956,39.956,0,0,1,11.544-4.305,45.65,45.65,0,0,1,15.561-.807,37.152,37.152,0,0,1,14.068,4.724q5.067,2.926,7.027,6.454a7.47,7.47,0,0,1,.185,7.242,13.589,13.589,0,0,1-5.7,5.581q-5.922,3.42-14.691,3.669-7.847.236-12.258-2.312a5.042,5.042,0,0,1-1.851-1.564,1.37,1.37,0,0,1-.051-1.445A4.812,4.812,0,0,1,361.016,243.956Zm-4.352-8.907q-2.8,1.616-3.023,3.279c-.148,1.11.262,1.1,1.405,1.761.763.439,3.222.438,4.523.663a20.927,20.927,0,0,0,4.454.223c1.668-.075,2.1.86,3.973.344a20.784,20.784,0,0,0,4.895-1.975q2.778-1.605,2.931-3.285t-1.83-2.826a8.957,8.957,0,0,0-3.123-1.038,18.359,18.359,0,0,0-4.373-.059,26.084,26.084,0,0,0-5.313,1.063A21.918,21.918,0,0,0,356.664,235.049Z" transform="translate(-337.815 -222.513)"/></g><path d="M361.017,242.11a27.387,27.387,0,0,1-5.434-.294,12.369,12.369,0,0,1-4.23-1.37,5.5,5.5,0,0,1-2.472-2.655,3.794,3.794,0,0,1,.481-3.5,10.171,10.171,0,0,1,3.769-3.414,25.809,25.809,0,0,1,8.172-2.8,30.1,30.1,0,0,1,9.034-.438,17.054,17.054,0,0,1,6.436,1.83,5.761,5.761,0,0,1,2.46,2.494,3.872,3.872,0,0,1-.051,3.239l3.864-1.427,3.657,2.111-16.653,6.217q-3.475,1.3-3.78,1.476a.868.868,0,0,0-.531.789,1.019,1.019,0,0,0,.613.813,11.293,11.293,0,0,0,4.086.922,27.465,27.465,0,0,0,8.071-.4,22.726,22.726,0,0,0,7.029-2.49,10.584,10.584,0,0,0,4.627-4.687,6.143,6.143,0,0,0-.47-5.746,15.1,15.1,0,0,0-5.872-5.446,31.822,31.822,0,0,0-10.974-3.752,36.965,36.965,0,0,0-12.546.168,34.43,34.43,0,0,0-11.137,3.914q-5,2.893-6.445,6.235a6.543,6.543,0,0,0,.951,6.719,22.886,22.886,0,0,0,7.395,6.266,34.756,34.756,0,0,0,10.771,4.139,33.634,33.634,0,0,0,9.788.6l3.7,2.134a34.785,34.785,0,0,1-7.947.46,43.564,43.564,0,0,1-9.552-1.445,39.871,39.871,0,0,1-9.716-4.111,30.55,30.55,0,0,1-7.2-5.5,10.567,10.567,0,0,1-3.025-5.793,7.926,7.926,0,0,1,1.318-5.456,19.376,19.376,0,0,1,6.62-5.8,39.93,39.93,0,0,1,11.544-4.305A45.661,45.661,0,0,1,372.921,221a37.114,37.114,0,0,1,14.066,4.726q5.069,2.926,7.027,6.453a7.473,7.473,0,0,1,.185,7.243A13.573,13.573,0,0,1,388.5,245q-5.926,3.422-14.691,3.669-7.847.238-12.258-2.312a5.022,5.022,0,0,1-1.852-1.564,1.373,1.373,0,0,1-.051-1.443A4.824,4.824,0,0,1,361.017,242.11Zm-4.352-8.907q-2.8,1.616-3.023,3.279a2.54,2.54,0,0,0,1.49,2.654,9.517,9.517,0,0,0,3.1,1,20.935,20.935,0,0,0,4.455.225,24.326,24.326,0,0,0,5.312-.885,20.845,20.845,0,0,0,4.895-1.975q2.778-1.605,2.931-3.285t-1.831-2.826a8.937,8.937,0,0,0-3.123-1.038,18.357,18.357,0,0,0-4.373-.059,26.22,26.22,0,0,0-5.313,1.061A21.866,21.866,0,0,0,356.664,233.2Z" transform="translate(-337.814 -220.665)"/></g></g><g transform="translate(0 58.551)"><ellipse class="b" cx="1.612" cy="0.931" rx="1.612" ry="0.931" transform="translate(59.656 44.692)"/><path class="b" d="M357.127,288.839a.694.694,0,0,1,0,1.315,2.513,2.513,0,0,1-2.28,0,.694.694,0,0,1,0-1.315A2.522,2.522,0,0,1,357.127,288.839Z" transform="translate(-288.758 -247.315)"/><path class="b" d="M344.96,291.18a.7.7,0,0,1,0,1.317,2.522,2.522,0,0,1-2.28,0,.7.7,0,0,1,0-1.317A2.522,2.522,0,0,1,344.96,291.18Z" transform="translate(-294.474 -246.215)"/><path class="b" d="M349.017,288.839a.694.694,0,0,1,0,1.315,2.513,2.513,0,0,1-2.28,0,.694.694,0,0,1,0-1.315A2.525,2.525,0,0,1,349.017,288.839Z" transform="translate(-292.568 -247.315)"/><path class="b" d="M353.072,286.5a.694.694,0,0,1,0,1.315,2.522,2.522,0,0,1-2.28,0,.694.694,0,0,1,0-1.315A2.513,2.513,0,0,1,353.072,286.5Z" transform="translate(-290.663 -248.415)"/><path class="b" d="M340.906,288.839a.694.694,0,0,1,0,1.315,2.513,2.513,0,0,1-2.28,0,.694.694,0,0,1,0-1.315A2.522,2.522,0,0,1,340.906,288.839Z" transform="translate(-296.379 -247.315)"/><path class="b" d="M344.96,286.5a.694.694,0,0,1,0,1.315,2.522,2.522,0,0,1-2.28,0,.694.694,0,0,1,0-1.315A2.513,2.513,0,0,1,344.96,286.5Z" transform="translate(-294.474 -248.415)"/><path class="b" d="M349.017,284.156a.7.7,0,0,1,0,1.317,2.525,2.525,0,0,1-2.281,0,.7.7,0,0,1,0-1.317A2.525,2.525,0,0,1,349.017,284.156Z" transform="translate(-292.568 -249.515)"/><path class="b" d="M336.814,286.473a.694.694,0,0,1,0,1.316,2.51,2.51,0,0,1-2.278,0,.694.694,0,0,1,0-1.316A2.519,2.519,0,0,1,336.814,286.473Z" transform="translate(-298.301 -248.427)"/><path class="b" d="M340.871,284.132a.694.694,0,0,1,0,1.315,2.522,2.522,0,0,1-2.28,0,.694.694,0,0,1,0-1.315A2.513,2.513,0,0,1,340.871,284.132Z" transform="translate(-296.395 -249.527)"/><path class="b" d="M332.759,284.132a.694.694,0,0,1,0,1.315,2.519,2.519,0,0,1-2.278,0,.694.694,0,0,1,0-1.315A2.51,2.51,0,0,1,332.759,284.132Z" transform="translate(-300.206 -249.527)"/><path class="b" d="M336.816,281.79a.7.7,0,0,1,0,1.317,2.522,2.522,0,0,1-2.28,0,.7.7,0,0,1,0-1.317A2.522,2.522,0,0,1,336.816,281.79Z" transform="translate(-298.301 -250.627)"/><path class="b" d="M328.7,281.79a.7.7,0,0,1,0,1.317,2.522,2.522,0,0,1-2.28,0,.7.7,0,0,1,0-1.317A2.522,2.522,0,0,1,328.7,281.79Z" transform="translate(-302.111 -250.627)"/><path class="b" d="M332.759,279.449a.7.7,0,0,1,0,1.317,2.519,2.519,0,0,1-2.278,0,.7.7,0,0,1,0-1.317A2.519,2.519,0,0,1,332.759,279.449Z" transform="translate(-300.206 -251.727)"/><path class="b" d="M324.65,279.449a.7.7,0,0,1,0,1.317,2.522,2.522,0,0,1-2.28,0,.7.7,0,0,1,0-1.317A2.522,2.522,0,0,1,324.65,279.449Z" transform="translate(-304.016 -251.727)"/><path class="b" d="M328.7,277.108a.694.694,0,0,1,0,1.315,2.513,2.513,0,0,1-2.28,0,.694.694,0,0,1,0-1.315A2.522,2.522,0,0,1,328.7,277.108Z" transform="translate(-302.111 -252.827)"/><path class="b" d="M320.595,277.108a.694.694,0,0,1,0,1.315,2.513,2.513,0,0,1-2.28,0,.694.694,0,0,1,0-1.315A2.522,2.522,0,0,1,320.595,277.108Z" transform="translate(-305.922 -252.827)"/><path class="b" d="M324.65,274.766a.7.7,0,0,1,0,1.317,2.522,2.522,0,0,1-2.28,0,.694.694,0,0,1,0-1.316A2.518,2.518,0,0,1,324.65,274.766Z" transform="translate(-304.016 -253.927)"/><path class="b" d="M316.54,274.767a.694.694,0,0,1,0,1.316,2.522,2.522,0,0,1-2.28,0,.694.694,0,0,1,0-1.316A2.513,2.513,0,0,1,316.54,274.767Z" transform="translate(-307.827 -253.927)"/><path class="b" d="M320.595,272.425a.7.7,0,0,1,0,1.317,2.522,2.522,0,0,1-2.28,0,.7.7,0,0,1,0-1.317A2.522,2.522,0,0,1,320.595,272.425Z" transform="translate(-305.922 -255.027)"/><path class="b" d="M312.484,272.425a.7.7,0,0,1,0,1.317,2.522,2.522,0,0,1-2.28,0,.7.7,0,0,1,0-1.317A2.522,2.522,0,0,1,312.484,272.425Z" transform="translate(-309.732 -255.027)"/><path class="b" d="M316.54,270.084a.7.7,0,0,1,0,1.317,2.522,2.522,0,0,1-2.28,0,.7.7,0,0,1,0-1.317A2.522,2.522,0,0,1,316.54,270.084Z" transform="translate(-307.827 -256.127)"/><path class="b" d="M312.485,267.743a.694.694,0,0,1,0,1.316,2.513,2.513,0,0,1-2.28,0,.694.694,0,0,1,0-1.316A2.513,2.513,0,0,1,312.485,267.743Z" transform="translate(-309.732 -257.227)"/><path class="b" d="M358.908,286.532a2.518,2.518,0,0,1,2.28,0,.7.7,0,0,1,0,1.317,2.522,2.522,0,0,1-2.28,0A.694.694,0,0,1,358.908,286.532Z" transform="translate(-286.849 -248.4)"/><path class="b" d="M365.249,284.187a.694.694,0,0,1,0,1.315,2.522,2.522,0,0,1-2.28,0,.694.694,0,0,1,0-1.315A2.513,2.513,0,0,1,365.249,284.187Z" transform="translate(-284.941 -249.501)"/><path class="b" d="M369.3,281.845a.7.7,0,0,1,0,1.317,2.522,2.522,0,0,1-2.28,0,.7.7,0,0,1,0-1.317A2.522,2.522,0,0,1,369.3,281.845Z" transform="translate(-283.036 -250.601)"/><path class="b" d="M373.36,279.5a.694.694,0,0,1,0,1.316,2.513,2.513,0,0,1-2.28,0,.694.694,0,0,1,0-1.316A2.522,2.522,0,0,1,373.36,279.5Z" transform="translate(-281.131 -251.701)"/><path class="b" d="M377.414,277.163a.694.694,0,0,1,0,1.316,2.519,2.519,0,0,1-2.278,0,.694.694,0,0,1,0-1.316A2.51,2.51,0,0,1,377.414,277.163Z" transform="translate(-279.226 -252.801)"/><path class="b" d="M381.47,274.821a.7.7,0,0,1,0,1.317,2.522,2.522,0,0,1-2.28,0,.7.7,0,0,1,0-1.317A2.522,2.522,0,0,1,381.47,274.821Z" transform="translate(-277.32 -253.901)"/><path class="b" d="M385.525,272.48a.7.7,0,0,1,0,1.317,2.522,2.522,0,0,1-2.28,0,.7.7,0,0,1,0-1.317A2.522,2.522,0,0,1,385.525,272.48Z" transform="translate(-275.415 -255.001)"/><path class="b" d="M389.58,270.139a.694.694,0,0,1,0,1.316,2.513,2.513,0,0,1-2.28,0,.694.694,0,0,1,0-1.316A2.522,2.522,0,0,1,389.58,270.139Z" transform="translate(-273.51 -256.101)"/><ellipse class="b" cx="1.612" cy="0.931" rx="1.612" ry="0.931" transform="translate(119.279 10.324)"/><path class="b" d="M354.853,284.191a2.517,2.517,0,0,1,2.28,0,.694.694,0,0,1,0,1.315,2.517,2.517,0,0,1-2.28,0A.694.694,0,0,1,354.853,284.191Z" transform="translate(-288.754 -249.5)"/><path class="b" d="M361.195,281.845a.7.7,0,0,1,0,1.317,2.522,2.522,0,0,1-2.28,0,.7.7,0,0,1,0-1.317A2.522,2.522,0,0,1,361.195,281.845Z" transform="translate(-286.847 -250.601)"/><path class="b" d="M365.249,279.5a.694.694,0,0,1,0,1.316,2.513,2.513,0,0,1-2.28,0,.694.694,0,0,1,0-1.316A2.522,2.522,0,0,1,365.249,279.5Z" transform="translate(-284.941 -251.701)"/><path class="b" d="M369.3,277.163a.694.694,0,0,1,0,1.316,2.522,2.522,0,0,1-2.28,0,.694.694,0,0,1,0-1.316A2.513,2.513,0,0,1,369.3,277.163Z" transform="translate(-283.036 -252.801)"/><path class="b" d="M373.36,274.821a.7.7,0,0,1,0,1.317,2.522,2.522,0,0,1-2.28,0,.7.7,0,0,1,0-1.317A2.522,2.522,0,0,1,373.36,274.821Z" transform="translate(-281.131 -253.901)"/><path class="b" d="M377.416,272.48a.7.7,0,0,1,0,1.317,2.522,2.522,0,0,1-2.28,0,.7.7,0,0,1,0-1.317A2.522,2.522,0,0,1,377.416,272.48Z" transform="translate(-279.226 -255.001)"/><path class="b" d="M381.47,270.139a.694.694,0,0,1,0,1.316,2.513,2.513,0,0,1-2.28,0,.694.694,0,0,1,0-1.316A2.522,2.522,0,0,1,381.47,270.139Z" transform="translate(-277.32 -256.101)"/><path class="b" d="M385.525,267.8a.694.694,0,0,1,0,1.315,2.522,2.522,0,0,1-2.28,0,.694.694,0,0,1,0-1.315A2.513,2.513,0,0,1,385.525,267.8Z" transform="translate(-275.415 -257.201)"/><path class="b" d="M389.58,265.456a.7.7,0,0,1,0,1.317,2.522,2.522,0,0,1-2.28,0,.7.7,0,0,1,0-1.317A2.522,2.522,0,0,1,389.58,265.456Z" transform="translate(-273.51 -258.301)"/><ellipse class="b" cx="1.612" cy="0.931" rx="1.612" ry="0.931" transform="translate(119.28 3.442)"/><path class="b" d="M350.8,281.848a2.522,2.522,0,0,1,2.28,0,.694.694,0,0,1,0,1.315,2.518,2.518,0,0,1-2.28,0A.7.7,0,0,1,350.8,281.848Z" transform="translate(-290.659 -250.6)"/><path class="b" d="M357.139,279.5a.7.7,0,0,1,0,1.317,2.522,2.522,0,0,1-2.28,0,.7.7,0,0,1,0-1.317A2.522,2.522,0,0,1,357.139,279.5Z" transform="translate(-288.752 -251.701)"/><path class="b" d="M361.195,277.163a.694.694,0,0,1,0,1.316,2.522,2.522,0,0,1-2.28,0,.694.694,0,0,1,0-1.316A2.513,2.513,0,0,1,361.195,277.163Z" transform="translate(-286.847 -252.801)"/><path class="b" d="M365.249,274.821a.7.7,0,0,1,0,1.317,2.522,2.522,0,0,1-2.28,0,.7.7,0,0,1,0-1.317A2.522,2.522,0,0,1,365.249,274.821Z" transform="translate(-284.941 -253.901)"/><path class="b" d="M369.3,272.48a.7.7,0,0,1,0,1.317,2.522,2.522,0,0,1-2.28,0,.7.7,0,0,1,0-1.317A2.522,2.522,0,0,1,369.3,272.48Z" transform="translate(-283.036 -255.001)"/><path class="b" d="M373.36,270.139a.694.694,0,0,1,0,1.316,2.513,2.513,0,0,1-2.28,0,.694.694,0,0,1,0-1.316A2.522,2.522,0,0,1,373.36,270.139Z" transform="translate(-281.131 -256.101)"/><path class="b" d="M377.416,267.8a.694.694,0,0,1,0,1.315,2.522,2.522,0,0,1-2.28,0,.694.694,0,0,1,0-1.315A2.513,2.513,0,0,1,377.416,267.8Z" transform="translate(-279.226 -257.201)"/><path class="b" d="M381.47,265.456a.7.7,0,0,1,0,1.317,2.522,2.522,0,0,1-2.28,0,.7.7,0,0,1,0-1.317A2.522,2.522,0,0,1,381.47,265.456Z" transform="translate(-277.32 -258.301)"/><path class="b" d="M385.525,263.115a.7.7,0,0,1,0,1.317,2.522,2.522,0,0,1-2.28,0,.7.7,0,0,1,0-1.317A2.522,2.522,0,0,1,385.525,263.115Z" transform="translate(-275.415 -259.401)"/><path class="b" d="M389.58,260.774a.694.694,0,0,1,0,1.315,2.522,2.522,0,0,1-2.28,0,.694.694,0,0,1,0-1.315A2.513,2.513,0,0,1,389.58,260.774Z" transform="translate(-273.51 -260.501)"/></g></g></g></svg>