<svg xmlns="http://www.w3.org/2000/svg" xmlns:xlink="http://www.w3.org/1999/xlink" width="483" height="297.616" viewBox="0 0 483 297.616">
  <defs>
    <linearGradient id="linear-gradient" y1="0.5" x2="1" y2="0.5" gradientUnits="objectBoundingBox">
      <stop offset="0" stop-color="#fff" stop-opacity="0"/>
      <stop offset="0.764" stop-color="#919191"/>
    </linearGradient>
    <linearGradient id="linear-gradient-2" x1="0.374" y1="0.731" x2="0.446" y2="0.57" gradientUnits="objectBoundingBox">
      <stop offset="0" stop-color="#a42427"/>
      <stop offset="1" stop-color="#e67c7f"/>
    </linearGradient>
    <linearGradient id="linear-gradient-3" x1="0.387" y1="0.748" x2="0.468" y2="0.536" gradientUnits="objectBoundingBox">
      <stop offset="0" stop-color="#3a62ce"/>
      <stop offset="0.994" stop-color="#a8bcf1"/>
    </linearGradient>
    <linearGradient id="linear-gradient-4" x1="0.612" y1="0.534" x2="0.33" y2="0.156" xlink:href="#linear-gradient-3"/>
    <linearGradient id="linear-gradient-6" x1="0.393" y1="0.7" x2="0.454" y2="0.559" gradientUnits="objectBoundingBox">
      <stop offset="0" stop-color="#69920a"/>
      <stop offset="1" stop-color="#d3eb9d"/>
    </linearGradient>
    <linearGradient id="linear-gradient-7" x1="0.487" y1="0.294" x2="0.35" y2="0.881" gradientUnits="objectBoundingBox">
      <stop offset="0" stop-color="#8e8e8d"/>
      <stop offset="1" stop-color="silver"/>
    </linearGradient>
    <linearGradient id="linear-gradient-8" y1="0.5" x2="1" y2="0.5" gradientUnits="objectBoundingBox">
      <stop offset="0" stop-color="#ccc"/>
      <stop offset="0.994" stop-color="#fafafa"/>
    </linearGradient>
    <linearGradient id="linear-gradient-9" x1="0" y1="0.5" x2="1" y2="0.5" xlink:href="#linear-gradient-6"/>
    <linearGradient id="linear-gradient-14" x1="0.334" y1="0.688" x2="0.691" y2="0.283" xlink:href="#linear-gradient-6"/>
    <linearGradient id="linear-gradient-15" x1="0.408" y1="0.342" x2="0.606" y2="0.711" gradientUnits="objectBoundingBox">
      <stop offset="0" stop-color="#b75b08"/>
      <stop offset="1" stop-color="#7f3e09"/>
    </linearGradient>
    <linearGradient id="linear-gradient-16" x1="0.172" y1="0.816" x2="0.709" y2="0.378" gradientUnits="objectBoundingBox">
      <stop offset="0" stop-color="#ff8a78"/>
      <stop offset="1" stop-color="#ffa799"/>
    </linearGradient>
    <linearGradient id="linear-gradient-17" x1="0.155" y1="0.767" x2="0.704" y2="0.336" xlink:href="#linear-gradient-16"/>
    <linearGradient id="linear-gradient-18" x1="0.902" y1="0.571" x2="0.207" y2="0.308" gradientUnits="objectBoundingBox">
      <stop offset="0" stop-color="#96999a"/>
      <stop offset="0.56" stop-color="#c6c6c6"/>
      <stop offset="1" stop-color="#fff"/>
    </linearGradient>
    <linearGradient id="linear-gradient-19" x1="0.787" y1="0.187" x2="-0.068" y2="0.765" gradientUnits="objectBoundingBox">
      <stop offset="0" stop-color="#3e4795"/>
      <stop offset="1" stop-color="#273088"/>
    </linearGradient>
    <linearGradient id="linear-gradient-20" x1="1.078" y1="0.231" x2="-0.225" y2="0.707" xlink:href="#linear-gradient-19"/>
    <linearGradient id="linear-gradient-21" x1="0.615" y1="0.834" x2="0.446" y2="0.199" xlink:href="#linear-gradient-18"/>
    <linearGradient id="linear-gradient-22" x1="0.497" y1="0.535" x2="0.528" y2="0.471" xlink:href="#linear-gradient-16"/>
    <linearGradient id="linear-gradient-23" x1="0.372" y1="0.744" x2="0.641" y2="0.067" xlink:href="#linear-gradient-18"/>
    <linearGradient id="linear-gradient-24" x1="0.478" y1="0.533" x2="0.406" y2="0.852" xlink:href="#linear-gradient-16"/>
    <linearGradient id="linear-gradient-25" x1="0.912" y1="0.373" x2="0.409" y2="0.782" gradientUnits="objectBoundingBox">
      <stop offset="0" stop-color="#ffb89e"/>
      <stop offset="1" stop-color="#ffa799"/>
    </linearGradient>
    <linearGradient id="linear-gradient-26" x1="0.444" y1="0.591" x2="0.611" y2="0.269" gradientUnits="objectBoundingBox">
      <stop offset="0" stop-color="#fff"/>
      <stop offset="1" stop-color="#949494"/>
    </linearGradient>
    <linearGradient id="linear-gradient-27" x1="0.518" y1="0.469" x2="0.669" y2="0.274" xlink:href="#linear-gradient-6"/>
    <linearGradient id="linear-gradient-29" x1="0" y1="0.5" x2="1" y2="0.5" xlink:href="#linear-gradient-7"/>
    <linearGradient id="linear-gradient-30" y1="0.5" x2="1" y2="0.5" gradientUnits="objectBoundingBox">
      <stop offset="0" stop-color="#fff"/>
      <stop offset="0.994" stop-color="#ededed"/>
    </linearGradient>
    <linearGradient id="linear-gradient-31" x1="0.493" y1="0.62" x2="0.526" y2="0.244" xlink:href="#linear-gradient-6"/>
    <linearGradient id="linear-gradient-35" x1="0.49" y1="0.593" x2="0.576" y2="0.401" xlink:href="#linear-gradient-6"/>
    <linearGradient id="linear-gradient-45" x1="0" y1="0.5" x2="1" y2="0.5" xlink:href="#linear-gradient-3"/>
    <linearGradient id="linear-gradient-46" x1="0.49" y1="0.593" x2="0.576" y2="0.401" xlink:href="#linear-gradient-3"/>
    <linearGradient id="linear-gradient-56" x1="0" y1="0.5" x2="1" y2="0.5" xlink:href="#linear-gradient-2"/>
    <linearGradient id="linear-gradient-57" x1="0.49" y1="0.593" x2="0.576" y2="0.401" xlink:href="#linear-gradient-2"/>
  </defs>
  <g id="Grupo_4288" data-name="Grupo 4288" transform="translate(-257.542 -156.952)">
    <g id="Grupo_4284" data-name="Grupo 4284" transform="translate(355.338 156.952)">
      <path id="Caminho_3520" data-name="Caminho 3520" d="M830.289,652.118l-97.14-53.633c-3.222-1.472-7.957-2.86-11.116-.936l-67.312,38.882c-1.648.951-6.975,4.281-3.4,6.226,10.525,5.722,87.484,49.682,98.172,55.5a15.01,15.01,0,0,0,8.082,1.239,20.307,20.307,0,0,0,8.754-2.607l63.072-36.565c2.283-1.408,3.548-2.947,3.669-4.421C833.193,654.358,832.267,653.021,830.289,652.118Z" transform="translate(-574.01 -401.852)" fill-rule="evenodd" opacity="0.5" fill="url(#linear-gradient)" style="mix-blend-mode: multiply;isolation: isolate"/>
      <g id="Grupo_4238" data-name="Grupo 4238" transform="translate(82.172 122.226)">
        <g id="Grupo_4234" data-name="Grupo 4234" transform="translate(0 56.362)">
          <path id="Caminho_3521" data-name="Caminho 3521" d="M826.974,597.861l95.813,55.683-3.205,3.966-95.219-58.137Z" transform="translate(-753.244 -581.138)" fill="#f95db0" fill-rule="evenodd"/>
          <path id="Caminho_3522" data-name="Caminho 3522" d="M767.735,654.514c-3.882,5.2-8.339,16.667-5.069,20.615l-95.806-55.683c-7.554-5.641.585-20.7,6.616-22.369L737.5,560.109l95.815,55.685-5.172,4.072Z" transform="translate(-663.814 -560.109)" fill-rule="evenodd" fill="url(#linear-gradient-2)"/>
          <g id="Grupo_4233" data-name="Grupo 4233" transform="translate(96.07 55.685)">
            <path id="Caminho_3523" data-name="Caminho 3523" d="M893.5,731.518l61.7-35.455-.062,13.684-60.052,36.619c-4.609,2.681-7.337.963-7.855-2.173C886.582,740.228,889.23,733.995,893.5,731.518Z" transform="translate(-884.281 -691.524)" fill="#f4f9ff" fill-rule="evenodd"/>
            <path id="Caminho_3524" data-name="Caminho 3524" d="M883.435,729.825a19.244,19.244,0,0,1,6.662-7.052l64.021-36.957.008,4.975-2.611,1.5-61.41,35.455a11.3,11.3,0,0,0-5.094,8.828,3.121,3.121,0,0,0,5.129,2.917l61.41-35.455,2.61-1.5.019,4.975L890.16,744.471c-2.6,1.5-4.966,1.64-6.687.68-1.7-.987-2.775-3.092-2.783-6.073A19.128,19.128,0,0,1,883.435,729.825Z" transform="translate(-880.689 -685.816)" fill="#a42427" fill-rule="evenodd"/>
          </g>
        </g>
        <path id="Caminho_3525" data-name="Caminho 3525" d="M747.279,566.47l-66.054,35.348a1.1,1.1,0,0,0,.492,1.768c6.915,3.76,81.664,46.422,88.686,50.242a9.854,9.854,0,0,0,5.311.814,14.387,14.387,0,0,0,5.751-1.713l60.292-34.185-6.743-3.954Z" transform="translate(-673.364 -507.291)" fill="#f95db0" fill-rule="evenodd" opacity="0.5" style="mix-blend-mode: multiply;isolation: isolate"/>
        <g id="Grupo_4235" data-name="Grupo 4235" transform="translate(0 28.683)">
          <path id="Caminho_3526" data-name="Caminho 3526" d="M826.974,535.375l95.813,55.683-3.205,3.966-95.219-58.137Z" transform="translate(-753.244 -518.652)" fill="#355baf" fill-rule="evenodd"/>
          <path id="Caminho_3527" data-name="Caminho 3527" d="M767.735,592.029c-3.882,5.2-8.339,16.667-5.069,20.615L666.86,556.961c-7.553-5.641.585-20.7,6.617-22.369L737.5,497.624l95.815,55.684-5.172,4.073Z" transform="translate(-663.814 -497.624)" fill-rule="evenodd" fill="url(#linear-gradient-3)"/>
          <path id="Caminho_3528" data-name="Caminho 3528" d="M893.5,669.032l61.7-35.455-.062,13.685-60.052,36.619c-4.609,2.68-7.337.962-7.855-2.173C886.582,677.742,889.23,671.509,893.5,669.032Z" transform="translate(-788.211 -573.353)" fill="#f4f9ff" fill-rule="evenodd"/>
          <path id="Caminho_3529" data-name="Caminho 3529" d="M883.435,667.339a19.243,19.243,0,0,1,6.662-7.052l64.021-36.958.008,4.975-2.611,1.5-61.41,35.455a11.3,11.3,0,0,0-5.094,8.828,3.121,3.121,0,0,0,5.129,2.917l61.41-35.455,2.61-1.5.019,4.976L890.16,681.986c-2.6,1.5-4.966,1.639-6.687.679-1.7-.987-2.775-3.092-2.783-6.073A19.129,19.129,0,0,1,883.435,667.339Z" transform="translate(-784.619 -567.646)" fill="#3a62ce" fill-rule="evenodd"/>
          <path id="Caminho_3530" data-name="Caminho 3530" d="M925.375,723.691v13.685l-4.516-2.719-5.807,8.582V729.753a1.274,1.274,0,0,1-.057-.294c-.3-3.7-3.472-8.207-5.859-8.869l10.578-6.237c2.548.706,5.736,5.488,5.658,9.339Z" transform="translate(-800.465 -618.348)" fill-rule="evenodd" fill="url(#linear-gradient-4)"/>
        </g>
        <path id="Caminho_3531" data-name="Caminho 3531" d="M746.64,503.642,680.585,538.99a1.1,1.1,0,0,0,.492,1.768c6.915,3.76,81.664,46.422,88.686,50.241a9.851,9.851,0,0,0,5.31.814,14.4,14.4,0,0,0,5.751-1.713l60.293-34.185-6.744-3.955Z" transform="translate(-673.008 -472.294)" fill-rule="evenodd" opacity="0.5" fill="url(#linear-gradient)" style="mix-blend-mode: multiply;isolation: isolate"/>
        <g id="Grupo_4237" data-name="Grupo 4237">
          <path id="Caminho_3532" data-name="Caminho 3532" d="M826.974,470.626l95.813,55.683-3.205,3.966-95.218-58.136Z" transform="translate(-753.244 -453.903)" fill="#1c8df3" fill-rule="evenodd"/>
          <path id="Caminho_3533" data-name="Caminho 3533" d="M767.735,527.279c-3.882,5.2-8.339,16.667-5.069,20.615L666.86,492.211c-7.553-5.641.585-20.7,6.617-22.369L737.5,432.874l95.815,55.685-5.172,4.072Z" transform="translate(-663.814 -432.874)" fill-rule="evenodd" fill="url(#linear-gradient-6)"/>
          <g id="Grupo_4236" data-name="Grupo 4236" transform="translate(96.07 55.685)">
            <path id="Caminho_3534" data-name="Caminho 3534" d="M893.5,604.283l61.7-35.455-.061,13.684-60.052,36.619c-4.609,2.68-7.337.962-7.855-2.173C886.581,612.993,889.229,606.76,893.5,604.283Z" transform="translate(-884.28 -564.289)" fill="#e8f3ff" fill-rule="evenodd"/>
            <path id="Caminho_3535" data-name="Caminho 3535" d="M883.435,602.59a19.237,19.237,0,0,1,6.663-7.052l64.021-36.958.008,4.975-2.61,1.5-61.41,35.456a11.3,11.3,0,0,0-5.094,8.827,3.121,3.121,0,0,0,5.129,2.917l61.41-35.455,2.61-1.5.019,4.976L890.16,617.236c-2.6,1.5-4.967,1.64-6.687.68-1.7-.987-2.775-3.092-2.783-6.073A19.131,19.131,0,0,1,883.435,602.59Z" transform="translate(-880.689 -558.581)" fill="#8ebe21" fill-rule="evenodd"/>
          </g>
        </g>
      </g>
      <path id="Caminho_3536" data-name="Caminho 3536" d="M826.493,538.346,733.915,486.4c-1.3-.594-3.22-1.153-4.5-.373l-3.273,2c-.658.4-2.823,1.736-1.375,2.521,4.26,2.311,88.92,50.1,93.245,52.449a6.07,6.07,0,0,0,3.272.5,8.23,8.23,0,0,0,3.543-1.06l1.308-.808c.924-.571,1.436-1.195,1.485-1.792S827.293,538.71,826.493,538.346Z" transform="translate(-615.322 -340.042)" fill="#1c8df3" fill-rule="evenodd" opacity="0.5" style="mix-blend-mode: multiply;isolation: isolate"/>
      <g id="Grupo_4242" data-name="Grupo 4242" transform="translate(35.203 1.097)">
        <g id="Grupo_4239" data-name="Grupo 4239">
          <path id="Caminho_3537" data-name="Caminho 3537" d="M601.789,160.179a4.952,4.952,0,0,0-4.213-.47l-3.163,1.235c-1.148,5.943,92.366,158.422,93.833,159.934l2.823-1.065a5.515,5.515,0,0,0,3.1-4.534l13.081-88.493a.093.093,0,0,0,0-.019,11.62,11.62,0,0,0-1.939-7.869,9.155,9.155,0,0,0-3.183-3.07Z" transform="translate(-578.181 -159.429)" fill-rule="evenodd" fill="url(#linear-gradient-7)"/>
          <path id="Caminho_3538" data-name="Caminho 3538" d="M678.609,218.539,578.272,162.89c-3.435-1.9-6.7-.076-7.311,4.067l-13.081,88.494c-.606,4.143,1.676,9.049,5.111,10.952l100.339,55.649c3.434,1.9,6.712.08,7.319-4.062l13.081-88.495C684.336,225.353,682.043,220.442,678.609,218.539Z" transform="translate(-557.782 -160.937)" fill-rule="evenodd" fill="url(#linear-gradient-8)"/>
        </g>
        <g id="Grupo_4241" data-name="Grupo 4241" transform="translate(11.959 1.199)">
          <path id="Caminho_3539" data-name="Caminho 3539" d="M693.647,218.539,593.31,162.89c-3.434-1.9-6.7-.076-7.311,4.067l-1.221,8.331,112.765,62.558,1.224-8.351C699.373,225.353,697.081,220.442,693.647,218.539Z" transform="translate(-584.778 -162.136)" fill-rule="evenodd" fill="url(#linear-gradient-9)"/>
          <g id="Grupo_4240" data-name="Grupo 4240" transform="translate(6.305 6.759)">
            <path id="Caminho_3540" data-name="Caminho 3540" d="M600.528,182.927a4.684,4.684,0,0,1-1.449-4.148,1.413,1.413,0,0,1,2.478-.913,4.69,4.69,0,0,1,1.449,4.148A1.413,1.413,0,0,1,600.528,182.927Z" transform="translate(-599.012 -177.394)" fill-rule="evenodd" fill="url(#linear-gradient-9)"/>
            <path id="Caminho_3541" data-name="Caminho 3541" d="M616.075,192.372a4.685,4.685,0,0,1-1.449-4.148,1.413,1.413,0,0,1,2.478-.912,4.688,4.688,0,0,1,1.448,4.148A1.412,1.412,0,0,1,616.075,192.372Z" transform="translate(-607.672 -182.654)" fill-rule="evenodd" fill="url(#linear-gradient-9)"/>
            <path id="Caminho_3542" data-name="Caminho 3542" d="M631.622,201.817a4.688,4.688,0,0,1-1.449-4.148,1.413,1.413,0,0,1,2.478-.912A4.687,4.687,0,0,1,634.1,200.9,1.413,1.413,0,0,1,631.622,201.817Z" transform="translate(-616.332 -187.916)" fill-rule="evenodd" fill="url(#linear-gradient-9)"/>
          </g>
        </g>
      </g>
      <path id="Caminho_3543" data-name="Caminho 3543" d="M539.894,662.159l-32.651-18.6c-3.56-1.627-8.654-2.921-12.281-1.033-3.3,1.72-8.748,5.239-11.155,6.612-1.828,1.042-8.174,4.844-4.222,6.994,11.628,6.323,23.135,13.434,34.942,19.857a16.564,16.564,0,0,0,8.929,1.369,23.637,23.637,0,0,0,9.671-2.88q2.944-1.712,5.79-3.37c2.561-1.491,3.919-3.255,4.054-4.885C543.1,664.633,542.079,663.157,539.894,662.159Z" transform="translate(-478.313 -426.911)" fill-rule="evenodd" opacity="0.5" fill="url(#linear-gradient)" style="mix-blend-mode: multiply;isolation: isolate"/>
      <g id="Grupo_4243" data-name="Grupo 4243" transform="translate(225.047 78.821)">
        <path id="Caminho_3544" data-name="Caminho 3544" d="M993.439,340.671a40.329,40.329,0,0,1,1.787-4.637,14.825,14.825,0,0,1,1.844-.85,5.563,5.563,0,0,1,4.8.631l49.638,29.013c4,2.315,6.713,8.249,6.058,13.244l-4.534,32.163a7.625,7.625,0,0,1-2.1,4.685,8.16,8.16,0,0,1-3.621,1.793c-1.137.142-1.437-.884-2.712-1.622l-49.637-29.013c-4-2.317-6.714-8.25-6.058-13.244Z" transform="translate(-987.718 -334.889)" fill="#d0e7ff" fill-rule="evenodd"/>
        <path id="Caminho_3545" data-name="Caminho 3545" d="M990.981,341.83c.655-4.994,4.43-7.173,8.432-4.856l49.637,29.013c4,2.315,6.713,8.25,6.058,13.244l-4.533,32.164c-.655,4.993-4.435,7.17-8.433,4.855l-49.637-29.013c-4-2.317-6.713-8.25-6.059-13.243Z" transform="translate(-986.35 -335.534)" fill-rule="evenodd" fill="url(#linear-gradient-14)"/>
      </g>
      <g id="Grupo_4256" data-name="Grupo 4256" transform="translate(1.997 74.787)">
        <g id="Grupo_4244" data-name="Grupo 4244">
          <path id="Caminho_3546" data-name="Caminho 3546" d="M522.532,326.72c2.741-.424,4.908,1.461,6,3.979a14.851,14.851,0,0,1,.671,8.757c-1.786,6.5,1.361,9.334,2.518,12.364a13.2,13.2,0,0,1,.668,5.011c-.078,2.328-1.419,3.527-2.544,5.612a18.4,18.4,0,0,1-1.639,5.764c-3.083,6.167-13.457,9.146-23.415,8.69-7.969-.365-15.671-3.185-19.158-6.426-3.827-3.557-4.322-12.587,2.107-13.507a6.563,6.563,0,0,0,4.519-2.089c.879-1.065.03-3.873-.182-7.612-.2-3.621.621-7.43,5.884-8.7,2.016-.486,3.981-.687,5.662-1.791,3.675-2.412,2.33-6.894,6.317-9.531,2.407-1.593,6.28-1.939,10.51-.765C521.14,326.556,521.832,326.643,522.532,326.72Z" transform="translate(-482.822 -325.781)" fill-rule="evenodd" fill="url(#linear-gradient-15)"/>
          <path id="Caminho_3547" data-name="Caminho 3547" d="M541.431,335.595a6.648,6.648,0,0,1-1.469,4.789c-2.45,3.457-3.737,3.187-5.077,7.59-2.2-1.471-3.717-1.7-4.353-.25-1.022,2.323-.377,3.7-.615,6.1-.387,3.906-5.056-1.448-8.717,1.545-3.6,2.943-1.13,5.009-2.52,9.175-.52,1.559-.924,3.61-2.38,4.3-4.527,2.144-6.261,7.539,1.8,10.218,4.993,1.659,12.242,1.244,18.3-.821,8-2.727,12.931-14.526,10.89-20.131-.845-2.32-3.126-4.052-3.137-5.865C544.112,346.018,545.315,342.024,541.431,335.595Z" transform="translate(-499.342 -331.247)" fill="#b75b08" fill-rule="evenodd"/>
        </g>
        <g id="Grupo_4247" data-name="Grupo 4247" transform="translate(70.093 6.647)">
          <g id="Grupo_4245" data-name="Grupo 4245" transform="translate(5.478 5.068)">
            <path id="Caminho_3548" data-name="Caminho 3548" d="M655.15,358.926c.485.066.76-.547,1.614-1.266.707-.6,1.2-1.312,1.9-1.982.7-.7.619-.527.911-1.443a17.41,17.41,0,0,1,.814-1.774c-.781-.684-1.78.241-2.057,1.324a2.775,2.775,0,0,0-1.313,1.063C654.354,355.1,651.5,358.436,655.15,358.926Z" transform="translate(-653.421 -352.227)" fill-rule="evenodd" fill="url(#linear-gradient-16)"/>
            <path id="Caminho_3549" data-name="Caminho 3549" d="M664.467,352.234c-.663-.075-1.345.688-1.565,1.553a2.7,2.7,0,0,0-1.271,1,6.153,6.153,0,0,1,1.449-.844A2.833,2.833,0,0,1,664.467,352.234Z" transform="translate(-657.994 -352.228)" fill="#ff8978" fill-rule="evenodd"/>
          </g>
          <g id="Grupo_4246" data-name="Grupo 4246">
            <path id="Caminho_3550" data-name="Caminho 3550" d="M652.706,341.27c-.312.427-.614.862-.935,1.283l-1.319,1.734c-.027-.978-.708-1.478-1.374-1.114a1.674,1.674,0,0,0-.585.538c-.043-.273-.66-.987-1.9.221a1.094,1.094,0,0,0-1.321.462,7.8,7.8,0,0,0-.6.926,4.1,4.1,0,0,0-.543,1.306c-.168.924-.318,1.934-.552,3.032a7.582,7.582,0,0,1-2.519,3.365l3.9,2.069a24.271,24.271,0,0,1,2.059-1.825c.831-.575,1.232-.359,1.81-1.017,1.1-1.254,1.359-3.046,1.961-4.962a17.523,17.523,0,0,1,.87-1.708,12.493,12.493,0,0,0,1.508-2.249c.213-.349.428-.711.66-1.1a1.2,1.2,0,0,0-.018-1.352C653.647,340.732,653.2,340.7,652.706,341.27Z" transform="translate(-641.054 -340.786)" fill-rule="evenodd" fill="url(#linear-gradient-17)"/>
            <path id="Caminho_3551" data-name="Caminho 3551" d="M656.179,347.439l-.113.149a1.717,1.717,0,0,0-.131-.634,2.416,2.416,0,0,1-.9,1.29,1.614,1.614,0,0,0,1.144-.8ZM654.1,347a.56.56,0,0,0-.19-.284,3.832,3.832,0,0,1-.74,1.179,2.167,2.167,0,0,0,.93-.9Zm-1.874.211-.026.025a1.521,1.521,0,0,0-.283-.06,2.947,2.947,0,0,1-.788,1.326A2.346,2.346,0,0,0,652.23,347.207Z" transform="translate(-646.668 -344.088)" fill="#ff8978" fill-rule="evenodd"/>
          </g>
        </g>
        <path id="Caminho_3552" data-name="Caminho 3552" d="M597.647,383.526c-5.181-.511-12.606-1.334-16.617-3.4-2.607-1.344-7.31-7.116-4.662-10.322.559-1.5,5.56,1.652,8.022,2.587a98.155,98.155,0,0,0,12,3.662c1.254-3.512,4.87-6.818,7.488-10.085a4.831,4.831,0,0,1,1.659-1.228,5.168,5.168,0,0,0,.824-1.07c.442-.18,3.253,1.194,3.987,2.587-.2.268-.637.878-.833,1.178-.279.427-.175,1.139-.334,1.654-.653,2.11-4.954,8.941-7.332,11.785-.905,1.083-2.232,3-3.8,2.725C597.906,383.575,597.775,383.551,597.647,383.526Z" transform="translate(-534.493 -346.876)" fill-rule="evenodd" fill="url(#linear-gradient-18)"/>
        <path id="Caminho_3553" data-name="Caminho 3553" d="M597.648,391.341c-5.181-.511-12.606-1.333-16.616-3.4-2.253-1.161-6.068-5.627-5.358-8.888.97-.914,1.555-1.4,2.379-1.367,1.031.045,2.28,1.157,4.666,2.389,3.609,1.864,7.006,1.965,9.8,5.27,2.06,2.439,5.5,4.545,8.417,4.454-.8.92-1.784,1.808-2.889,1.617C597.908,391.39,597.776,391.366,597.648,391.341Z" transform="translate(-534.495 -354.691)" fill="#727272" fill-rule="evenodd" opacity="0.35" style="mix-blend-mode: multiply;isolation: isolate"/>
        <g id="Grupo_4252" data-name="Grupo 4252" transform="translate(20.24 60.373)">
          <g id="Grupo_4249" data-name="Grupo 4249" transform="translate(0.894)">
            <g id="Grupo_4248" data-name="Grupo 4248" transform="translate(0 72.328)">
              <path id="Caminho_3554" data-name="Caminho 3554" d="M534.17,625.349a3.6,3.6,0,0,1-.4,2.019c-1.893,2.749.362,2.517.263,6.44-.009.361,1.593,6.559,1.593,6.559s3.776.914,4.057.865,2.575-.936,2.575-.936c-.194-.335-.451-1.154-.608-1.462a24.918,24.918,0,0,1-2.082-7.267c-.277-1.7-.8-4.355-.447-6.145Z" transform="translate(-531.91 -625.349)" fill="#ffa698" fill-rule="evenodd"/>
              <path id="Caminho_3555" data-name="Caminho 3555" d="M541,642.493a16.827,16.827,0,0,1,1.062,2.5,1.183,1.183,0,0,1-.052,1.013c-.862,1.243-5.464-.816-7.026-2.1-1.01-.832-1.062-1.855-1.334-3.1-.409-1.865-.476-2.074-.99-3.987l-.333,5.251-.423.276a58.289,58.289,0,0,0-.875-6.753c-.156-.722-.408-1.542-.453-1.943a4.154,4.154,0,0,1,1.923-4.273c-.348,1.455.941,3.764,1.516,6.7C534.705,639.628,537.844,642.516,541,642.493Z" transform="translate(-530.532 -627.592)" fill="#161f69" fill-rule="evenodd"/>
            </g>
            <path id="Caminho_3556" data-name="Caminho 3556" d="M560.279,462.07c-.357,1.612,1.29,7.18.869,9.322-.4,7.049-1.639,13.014-6.39,27.111,0,.16-4.339,8.781-4.63,9.683-2.957,9.2-6.644,19.181-9.777,28.472-1.161.9-4.675.62-5.126-1.566.968-9.281-.088-18.433,1.5-24.783,1.213-4.839,2.8-7.045,5.4-10.631.8-9.123,1.375-27.42,3.452-34.434Z" transform="translate(-533.147 -462.07)" fill-rule="evenodd" fill="url(#linear-gradient-19)"/>
            <path id="Caminho_3557" data-name="Caminho 3557" d="M560.279,462.07c-.357,1.612-1.421,4.6-1.842,6.74-1.324,3.244-4.115,7.686-6,11.418-.564,4.524-.406,10.537-3.231,18.92l-2.557,19.383c-2.1,6.069-4.313,12.238-6.3,18.127-1.161.9-4.675.62-5.126-1.566.968-9.281-.088-18.433,1.5-24.783,1.213-4.839,2.8-7.045,5.4-10.631.8-9.123,1.375-27.42,3.452-34.434Z" transform="translate(-533.147 -462.07)" fill="#1e2353" fill-rule="evenodd" opacity="0.3" style="mix-blend-mode: multiply;isolation: isolate"/>
          </g>
          <g id="Grupo_4251" data-name="Grupo 4251" transform="translate(0 4.124)">
            <g id="Grupo_4250" data-name="Grupo 4250" transform="translate(5.634 77.164)">
              <path id="Caminho_3558" data-name="Caminho 3558" d="M543.155,646.021a12.19,12.19,0,0,1-.406,2.578,29.945,29.945,0,0,0-.281,4.563,40.658,40.658,0,0,0,1.016,8.2c.262,1.141.77,1.631,1.113,3.193l6.728,1.1c-.662-2.546-1.574-7.7-2.261-12.016l-1.286-8.066Z" transform="translate(-541.915 -645.575)" fill="#ffa698" fill-rule="evenodd"/>
              <path id="Caminho_3559" data-name="Caminho 3559" d="M542.127,651.387a12.445,12.445,0,0,0-.893,3.913c-.058,1.842.793,4.722.721,7l-.113,3.62c-.066,2.109.47,3.572,2.866,5.315,2.171,1.58,4.286,2.227,5.437,1.666.847-.413,1.524-1.906.225-5.844-1.082-3.28-1.36-6.486-2-10.044a35.791,35.791,0,0,0,1.151,8.092c.236.957.376,2.56-.761,2.722-4.7.672-4.938-.592-5.326-2.043C542.4,661.914,541.646,655.02,542.127,651.387Z" transform="translate(-541.232 -648.813)" fill="#161f69" fill-rule="evenodd"/>
            </g>
            <path id="Caminho_3560" data-name="Caminho 3560" d="M533.311,472.824c-5.223,6.539-5.355,10.164-4.223,18.021.757,5.254,2.3,11.628,2.684,20.861-.452,4.763-1.3,10.1-.656,17.494.478,5.444,2.008,14.783,3.162,21.385,1.085,2.04,6.217,1.152,7.055.1-.242-9.461-.093-15.949.359-23.59.44-7.433,1.326-14.328,1.883-21.659.461-6.066,2.3-14.316,2.546-20.869.978-3.089,10.227-13.32,8.3-13.188Z" transform="translate(-528.513 -471.38)" fill-rule="evenodd" fill="url(#linear-gradient-20)"/>
          </g>
        </g>
        <g id="Grupo_4253" data-name="Grupo 4253" transform="translate(21.483 22.817)">
          <path id="Caminho_3561" data-name="Caminho 3561" d="M535.509,405.7c2.346,5.428-1.643,8.432-.206,12.17l-.443,2.532c4.281,3.074,19.591,3.3,23.429-2.791l.08-3.039c.66-1.455.225-5.133.032-6.1-.616-3.085-.329-4.722-.665-8.29-.085-.9-.254-1.47-.337-2.384,3.409-2.548,3.194-7.477,1.173-10.428a25.952,25.952,0,0,1-2.651-4.682,21.228,21.228,0,0,0-.59-2.681,4.445,4.445,0,0,0-.714-1.465c-.973-1.389-2.546-1.555-5.76-.818-6.368,1.462-12.926,4.768-15.852,7.885-2.129,2.267-2.044,4.783-.824,10.221A58.306,58.306,0,0,0,535.509,405.7Z" transform="translate(-531.32 -377.289)" fill-rule="evenodd" fill="url(#linear-gradient-21)"/>
          <path id="Caminho_3562" data-name="Caminho 3562" d="M536.62,420.411c2.346,5.428-1.546,8.529-.109,12.267l-.444,2.5c4.281,3.332,19.591,3.174,23.429-2.92l-.081-2.652c0-.106-7.517,6.666-16.073,2.9-1.859-.818-3.541-4.885-1.135-12.652.229-.739,2.956-.789,6.818-3.635-2.851,1.209-8.228,2.865-8.493-4.389-.119-3.243-.6-5.682-2.256-7.937-.8-1.093-5.524,4.642-4.805,7.392A68.86,68.86,0,0,0,536.62,420.411Z" transform="translate(-532.476 -392.033)" fill="#727272" fill-rule="evenodd" opacity="0.35" style="mix-blend-mode: multiply;isolation: isolate"/>
        </g>
        <g id="Grupo_4254" data-name="Grupo 4254" transform="translate(7.977 30.355)">
          <path id="Caminho_3563" data-name="Caminho 3563" d="M531.964,468.5c.779.471,2.2.931,2.768,1.271.3.176,2.412,1.494,3.6,2.294,1.273.856,1.632,2.09,2.392,3.462a8.608,8.608,0,0,1,.857,2.487c.081.578-1.388,1.69-2.012,1.552-1.418-.314-2.866-2.055-3.24-2.249-3.177-1.647-4.7-1.81-5.846-3.12-.49-.56-.79-2.2-1.8-3.667l1.948-1.763Z" transform="translate(-516.345 -435.636)" fill-rule="evenodd" fill="url(#linear-gradient-22)"/>
          <path id="Caminho_3564" data-name="Caminho 3564" d="M516.062,394.683c-4.718,2.972-9.932,11.17-14.6,18.467a3.4,3.4,0,0,0-.2,3.624,8.982,8.982,0,0,0,.919,1.652,45.324,45.324,0,0,0,9.134,10.209,3.563,3.563,0,0,0,1.383.573c.3.246.715.691,1.033.948-.394-.508,1.967-3.052,3.038-2.882-.276-.341-.556-.71-.842-1.1a3.224,3.224,0,0,0-.19-1.206,36.275,36.275,0,0,0-5.963-9.734c4.256-4.6,6.694-5.719,10.659-10.548C525.246,398.818,519.19,392.713,516.062,394.683Z" transform="translate(-500.829 -394.306)" fill-rule="evenodd" fill="url(#linear-gradient-23)"/>
        </g>
        <g id="Grupo_4255" data-name="Grupo 4255" transform="translate(31.996 6.861)">
          <path id="Caminho_3565" data-name="Caminho 3565" d="M556.621,368.055a16.7,16.7,0,0,1-.636,8.181c2.3,2.125,6.378,1.222,7.327-.7-.2-1.246-.434-2.39-.568-3.669Z" transform="translate(-555.572 -356.19)" fill="#ffa698" fill-rule="evenodd"/>
          <path id="Caminho_3566" data-name="Caminho 3566" d="M557.421,368.055a16.021,16.021,0,0,1,.205,3.958c.674,2.722,5.766,4.56,6.3,2.4-.144-.836-.285-1.658-.379-2.546Z" transform="translate(-556.372 -356.19)" fill-rule="evenodd" fill="url(#linear-gradient-24)"/>
          <path id="Caminho_3567" data-name="Caminho 3567" d="M565.585,341.27a9.1,9.1,0,0,1,1.49,6.229,2.681,2.681,0,0,0,.214,1.488c1.071,2.416.974,3.165.444,5.1-.516,1.883-.481,2.866-1.123,3.513a3.746,3.746,0,0,1-2.482.87c-1.714.108-4.655-1.022-6.365-1.957-1.268-.693-1.219-1.167-1.754-2.369-1.789-1.556-.63-2.692-.031-2.808,1.719-.334,2,1.647,3.016,2.085C558.826,349.94,565.458,344.065,565.585,341.27Z" transform="translate(-555.053 -341.27)" fill="#ffa698" fill-rule="evenodd"/>
          <path id="Caminho_3568" data-name="Caminho 3568" d="M573.808,344.417a8.946,8.946,0,0,1,.73,4.835,2.681,2.681,0,0,0,.214,1.488c1.071,2.416.975,3.165.444,5.1-.231.844-.352,1.508-.472,2.041a1.606,1.606,0,0,1-2,.578,3.087,3.087,0,0,1-1.6-2.574c-.126-1-2.178-1.662-2.6-2.68-.351-.844.6-1.786,1.171-2.272A14.3,14.3,0,0,0,573.808,344.417Z" transform="translate(-562.515 -343.023)" fill-rule="evenodd" fill="url(#linear-gradient-25)"/>
          <path id="Caminho_3569" data-name="Caminho 3569" d="M570.542,341.27c-.963,4.274-6.544,7.508-6.591,12.15C565.478,348.6,570.892,345.294,570.542,341.27Z" transform="translate(-560.009 -341.27)" fill="#ff8f7f" fill-rule="evenodd"/>
        </g>
      </g>
      <g id="Grupo_4264" data-name="Grupo 4264" transform="translate(191.251 149.849)">
        <path id="Caminho_3570" data-name="Caminho 3570" d="M946.689,513.007a6.157,6.157,0,0,1,2.935.893l62.543,36.783a11.657,11.657,0,0,1,4.434,5.488l-5.477,36.8a5.262,5.262,0,0,1-4.539-.576L969.369,570.5q-.107.446-.214.878c-.275,1.315-.569,2.626-.8,3.945-.479,2.681-1.33,3.306-4.2,1.635l-36.685-21.318a1.58,1.58,0,0,1-.585-1.06l-9.47-33.3.008.005-1.775-6.244a1.112,1.112,0,0,1,.027-.478v-.006l.008-.029.006-.021.017-.055.005-.015,0-.013,0-.013.006-.016c.02-.053.04-.1.063-.152l0,0,.013-.028.009-.019.037-.07.009-.016a1.131,1.131,0,0,1,.131-.2c.211-.224.542-.5.842-.344l11.187,6.585c-.089-.043.175.1.675.373a8.041,8.041,0,0,1,1.611,1.631c1.154,1.547,2.118,3.205,3.355,4.822l3.721-17.661,0-.013v0l0-.008,0-.011v0l0-.013v0l0-.01,0-.009v0l0-.015h0l0-.014,0-.007,0-.008,0-.014h0l0-.016,0,0,0-.011,0-.012v0l0-.017v0l0-.015,0-.01,0-.008.006-.017h0l.006-.018,0-.008,0-.01.005-.015v0l.006-.018,0,0,.005-.013,0-.012,0-.006.007-.018v0l.007-.017,0-.009,0-.01.007-.017v0l.008-.019,0-.006.006-.013.007-.013v0l.01-.019v0l.007-.015.006-.011,0-.008.009-.019h0l.01-.019,0-.008.007-.011.008-.015,0,0,.011-.018,0,0,.008-.014.008-.012,0-.006.012-.018v0l.011-.016.005-.008.007-.008.012-.016h0l.012-.017,0-.006.009-.011.013-.016.013-.017,0,0,.011-.014.008-.009.006-.007.014-.016.015-.015.006-.006.008-.008.013-.012,0,0,.015-.014,0,0,.011-.01.011-.009,0,0,.016-.012h0l.015-.011.009-.006.008-.006.016-.011h0l.017-.011.006,0,.011-.007a.656.656,0,0,1,.593-.028Z" transform="translate(-913.158 -502.469)" fill-rule="evenodd" fill="url(#linear-gradient-26)"/>
        <g id="Grupo_4263" data-name="Grupo 4263">
          <g id="Grupo_4258" data-name="Grupo 4258" transform="translate(12.527)">
            <g id="Grupo_4257" data-name="Grupo 4257">
              <path id="Caminho_3571" data-name="Caminho 3571" d="M978.059,563.184,938.335,540.1l9.223-43.771,0-.012V496.3l0-.011v0l0-.013v0l0-.01,0-.009v0l0-.015h0l0-.013,0-.007,0-.008,0-.014h0l0-.016,0-.005,0-.011,0-.012v0l0-.016v0l0-.014,0-.01,0-.007.006-.017h0l.006-.018,0-.007,0-.01,0-.015v0l.007-.018v0l.005-.014,0-.012,0-.006.007-.019h0l.007-.017,0-.009,0-.01.008-.016v0l.008-.019,0-.006.006-.012.007-.014,0,0,.009-.019v0l.007-.016.005-.011,0-.008.01-.019h0l.01-.019,0-.008.006-.01.008-.016,0,0,.011-.018,0,0,.008-.014.007-.012,0-.006.011-.018h0l.011-.016.006-.008.006-.008.011-.016h0l.012-.017,0-.006.009-.011.013-.016.013-.016,0,0,.012-.014.008-.009.006-.006.014-.016.015-.016.006-.006.008-.008.012-.012,0,0,.015-.014,0,0,.012-.01.011-.009,0,0,.016-.013h0l.016-.011.008-.006.008-.006.016-.011h0l.017-.011.006,0,.012-.007a.655.655,0,0,1,.593-.027l39.72,23.085C987.162,517.659,981.878,550.277,978.059,563.184Z" transform="translate(-938.335 -495.231)" fill-rule="evenodd" fill="url(#linear-gradient-27)"/>
              <path id="Caminho_3572" data-name="Caminho 3572" d="M947.558,497.707l30.281,18.13,2.243,39.507c-.358,3.433-1.392,6.748-1.825,10.155l-39.922-24.022Z" transform="translate(-938.335 -496.61)" fill="#526d09" fill-rule="evenodd"/>
            </g>
            <path id="Caminho_3573" data-name="Caminho 3573" d="M1004.208,559.13a1.163,1.163,0,0,1,.194-.143c.31-.178.589-.1.682.206l9.38,33.033,9.221-43.771a1.558,1.558,0,0,1,.673-.987.842.842,0,0,1,.192-.081c.38-.1.6.223.5.713l-9.274,44.065a6.652,6.652,0,0,1-.563,1.725,1.982,1.982,0,0,1-.747.842.645.645,0,0,1-.736.018,1.981,1.981,0,0,1-.538-1.029l-9.471-33.305A1.458,1.458,0,0,1,1004.208,559.13Z" transform="translate(-974.741 -524.272)" fill-rule="evenodd" fill="url(#linear-gradient-9)"/>
          </g>
          <g id="Grupo_4261" data-name="Grupo 4261" transform="translate(22.419 4.011)">
            <path id="Caminho_3574" data-name="Caminho 3574" d="M967.1,509.872c.221-1.683-.237-2.7.6-3.651a9.871,9.871,0,0,1,2.912-1.65,5.373,5.373,0,0,1,4.637.61l62.543,36.784c3.862,2.236,6.486,7.97,5.853,12.795l-3.287,24.223a7.372,7.372,0,0,1-2.028,4.526,7.882,7.882,0,0,1-3.5,1.733c-1.1.138-1.389-.854-2.62-1.567l-62.542-36.783c-3.867-2.238-6.487-7.971-5.854-12.795Z" transform="translate(-962.364 -504.285)" fill-rule="evenodd" fill="url(#linear-gradient-29)"/>
            <path id="Caminho_3575" data-name="Caminho 3575" d="M964.164,511.608c.633-4.824,4.28-6.93,8.146-4.691l62.543,36.782c3.862,2.237,6.486,7.97,5.853,12.8l-3.288,24.222c-.633,4.824-4.285,6.928-8.147,4.692l-62.542-36.784c-3.868-2.238-6.486-7.97-5.854-12.8Z" transform="translate(-960.73 -505.252)" fill-rule="evenodd" fill="url(#linear-gradient-30)"/>
            <path id="Caminho_3576" data-name="Caminho 3576" d="M968.059,511.608c.633-4.825,4.28-6.93,8.146-4.691l62.544,36.783c3.861,2.236,6.485,7.97,5.853,12.8l-.309,2.274A12.412,12.412,0,0,0,1043,557.9l-75.226-44.2Z" transform="translate(-964.625 -505.252)" fill-rule="evenodd" fill="url(#linear-gradient-31)"/>
            <g id="Grupo_4259" data-name="Grupo 4259" transform="translate(0 17.373)">
              <ellipse id="Elipse_134" data-name="Elipse 134" cx="10.356" cy="13.504" rx="10.356" ry="13.504" transform="matrix(0.968, -0.251, 0.251, 0.968, 0, 5.208)" fill="#fff" opacity="0.5"/>
              <path id="Caminho_3577" data-name="Caminho 3577" d="M1022.186,578.536c.2-1.539,1.363-2.191,2.593-1.456L1062.2,598.3a4.474,4.474,0,0,1,1.861,4.121l-.391,3.044c-.2,1.539-1.364,2.191-2.593,1.455L1023.657,585.7a4.473,4.473,0,0,1-1.862-4.121Z" transform="translate(-994.699 -562.038)" fill="#fff" fill-rule="evenodd" opacity="0.5"/>
              <path id="Caminho_3578" data-name="Caminho 3578" d="M1019.159,604.714c.119-.909.8-1.294,1.531-.859l22.1,12.529a2.644,2.644,0,0,1,1.1,2.434l-.231,1.8c-.12.909-.806,1.294-1.531.859l-22.1-12.529a2.641,2.641,0,0,1-1.1-2.434Z" transform="translate(-993.109 -577.021)" fill="#fff" fill-rule="evenodd" opacity="0.5"/>
            </g>
            <g id="Grupo_4260" data-name="Grupo 4260" transform="translate(6.635 4.19)">
              <path id="Caminho_3579" data-name="Caminho 3579" d="M977.675,513.784a2.758,2.758,0,0,1,1.826,2.831c-.056,1.32-.964,2.193-2.029,1.95a2.759,2.759,0,0,1-1.826-2.832C975.7,514.413,976.61,513.54,977.675,513.784Z" transform="translate(-975.643 -513.743)" fill="#fff" fill-rule="evenodd"/>
              <path id="Caminho_3580" data-name="Caminho 3580" d="M988.619,520.07a2.758,2.758,0,0,1,1.826,2.831c-.056,1.32-.965,2.193-2.029,1.949a2.757,2.757,0,0,1-1.826-2.831C986.646,520.7,987.555,519.826,988.619,520.07Z" transform="translate(-981.739 -517.244)" fill="#fff" fill-rule="evenodd"/>
              <path id="Caminho_3581" data-name="Caminho 3581" d="M1000.461,526.973a2.759,2.759,0,0,1,1.826,2.832c-.056,1.32-.964,2.193-2.029,1.95a2.759,2.759,0,0,1-1.826-2.832C998.488,527.6,999.4,526.73,1000.461,526.973Z" transform="translate(-988.335 -521.09)" fill="#fff" fill-rule="evenodd"/>
            </g>
          </g>
          <g id="Grupo_4262" data-name="Grupo 4262" transform="translate(0 5.3)">
            <path id="Caminho_3582" data-name="Caminho 3582" d="M951.793,538.042l9.6,31.985h0c.127.344.034,2.659.223,2.862l-39.721-23.082a1.58,1.58,0,0,1-.585-1.059l-9.47-33.3.008,0-1.775-6.243a1.616,1.616,0,0,1,.342-1.13c1.649,1.5,10.457,6.893,12.081,7.849,2.72,2.132,2.813,4.331,6.933,8.7a7.131,7.131,0,0,0,2.039,1.632Z" transform="translate(-910.056 -507.687)" fill-rule="evenodd" fill="url(#linear-gradient-9)"/>
            <path id="Caminho_3583" data-name="Caminho 3583" d="M1004.208,573.624a1.163,1.163,0,0,1,.194-.143c.31-.178.589-.1.682.206l9.38,33.033.745,1.662a1.982,1.982,0,0,1-.747.842.645.645,0,0,1-.736.018,1.981,1.981,0,0,1-.538-1.029l-9.471-33.305A1.458,1.458,0,0,1,1004.208,573.624Z" transform="translate(-962.214 -544.066)" fill-rule="evenodd" fill="url(#linear-gradient-9)"/>
            <path id="Caminho_3584" data-name="Caminho 3584" d="M932.707,524.919l20.036,11.644c-.521-.255-1.32.916-1.184,1.474l-20.236-11.759a12.356,12.356,0,0,1-1.687-1.091c-2.877-2.272-4.234-5.384-6.113-7.9a8.04,8.04,0,0,0-1.611-1.631c-.5-.272-.764-.417-.675-.373l-11.167-6.573a1.624,1.624,0,0,1,.344-1.12c.212-.225.542-.5.842-.344l11.187,6.585c-.089-.043.176.1.676.373a8.053,8.053,0,0,1,1.611,1.631c1.988,2.664,3.411,5.66,6.637,8.2A10.5,10.5,0,0,0,932.707,524.919Z" transform="translate(-910.056 -507.196)" fill="#8ebe21" fill-rule="evenodd"/>
          </g>
        </g>
      </g>
      <g id="Grupo_4270" data-name="Grupo 4270" transform="translate(124.491)">
        <path id="Caminho_3585" data-name="Caminho 3585" d="M774.364,184.719c.525-4-.563-6.415,1.42-8.677,1.264-1.44,5.252-3.295,6.919-3.922,3.227-1.215,7.077-.835,11.022,1.449l50.4,29.986c9.179,5.314,15.415,18.942,13.911,30.41l-7.814,57.569c-.466,3.554-1.792,8.141-4.822,10.756-2.158,1.864-5.775,3.8-8.315,4.117-2.61.327-3.3-2.029-6.227-3.724L780.46,272.7c-9.191-5.321-15.416-18.944-13.912-30.41Z" transform="translate(-763.234 -165.023)" fill-rule="evenodd" fill="url(#linear-gradient-9)"/>
        <path id="Caminho_3586" data-name="Caminho 3586" d="M767.389,188.846c1.5-11.467,10.172-16.471,19.361-11.149l50.4,29.985c9.179,5.314,15.415,18.943,13.911,30.41l-7.813,57.569c-1.5,11.466-10.184,16.464-19.364,11.15l-50.4-29.987c-9.191-5.32-15.416-18.944-13.912-30.41Z" transform="translate(-759.349 -167.322)" fill="#fff" fill-rule="evenodd"/>
        <path id="Caminho_3587" data-name="Caminho 3587" d="M776.647,188.845c1.5-11.468,10.172-16.47,19.361-11.151l50.4,29.987c9.178,5.315,15.415,18.944,13.911,30.409l-.734,5.4a29.645,29.645,0,0,0-3.074-2.055l-80.543-47.6Z" transform="translate(-768.607 -167.321)" fill-rule="evenodd" fill="url(#linear-gradient-35)"/>
        <g id="Grupo_4268" data-name="Grupo 4268" transform="translate(19.56)">
          <g id="Grupo_4265" data-name="Grupo 4265" transform="translate(37.168 22.167)">
            <path id="Caminho_3588" data-name="Caminho 3588" d="M899.3,256.318a3.333,3.333,0,1,1-4.814,1.3A3.538,3.538,0,0,1,899.3,256.318Z" transform="translate(-891.177 -234.225)" fill="#424242" fill-rule="evenodd"/>
            <path id="Caminho_3589" data-name="Caminho 3589" d="M902.058,258.973c2.2,2.335-.366,5.562-3.291,4.156a2.91,2.91,0,0,0,4.483-.822A2.647,2.647,0,0,0,902.058,258.973Z" transform="translate(-893.736 -235.947)" fill="#8e8e8e" fill-rule="evenodd"/>
            <path id="Caminho_3590" data-name="Caminho 3590" d="M907.217,207.824c4.86,2.286,6.079,8.671,3.617,15.217l-3.192-1.885c1.3-4.295,1.316-8.1-2.153-9.733s-9.8,1.284-12.509,6.412-2.255,10.378,1.568,12.176a1.9,1.9,0,0,1-1.505,3.484c-.179-.069-.354-.147-.528-.229-5.511-2.592-6.731-9.595-2.822-16.987S901.706,205.231,907.217,207.824Z" transform="translate(-887.41 -206.993)" fill="#f2f2f2" fill-rule="evenodd"/>
            <path id="Caminho_3591" data-name="Caminho 3591" d="M913.516,225.347l-2.448-1.446c1.3-4.295,1.316-8.1-2.153-9.733s-9.8,1.284-12.509,6.412-2.255,10.378,1.568,12.176a1.767,1.767,0,0,1,1.1,1.463c-1.557-.074-4.062-1.635-5.051-4.862-1.675-5.464,1.472-11.2,5.651-14.577,4.043-3.27,8.612-3.381,10.94-2.093C916.236,215.8,914.343,222.821,913.516,225.347Z" transform="translate(-890.836 -209.738)" fill="#d8d8d8" fill-rule="evenodd"/>
          </g>
          <g id="Grupo_4266" data-name="Grupo 4266" transform="translate(18.473 10.98)">
            <path id="Caminho_3592" data-name="Caminho 3592" d="M857.1,231.063a3.333,3.333,0,1,1-4.815,1.3A3.538,3.538,0,0,1,857.1,231.063Z" transform="translate(-848.973 -208.97)" fill="#424242" fill-rule="evenodd"/>
            <path id="Caminho_3593" data-name="Caminho 3593" d="M859.853,233.72c2.2,2.335-.367,5.562-3.291,4.155a2.91,2.91,0,0,0,4.484-.821A2.646,2.646,0,0,0,859.853,233.72Z" transform="translate(-851.532 -210.693)" fill="#8e8e8e" fill-rule="evenodd"/>
            <path id="Caminho_3594" data-name="Caminho 3594" d="M865.013,182.569c4.86,2.287,6.079,8.671,3.616,15.217l-3.193-1.884c1.3-4.3,1.317-8.1-2.151-9.733s-9.8,1.284-12.51,6.413-2.255,10.377,1.568,12.176a1.9,1.9,0,0,1-1.506,3.484c-.178-.069-.353-.147-.527-.229-5.511-2.592-6.731-9.6-2.822-16.987S859.5,179.976,865.013,182.569Z" transform="translate(-845.206 -181.738)" fill="#f2f2f2" fill-rule="evenodd"/>
            <path id="Caminho_3595" data-name="Caminho 3595" d="M871.313,200.093l-2.45-1.445c1.3-4.3,1.316-8.1-2.151-9.733s-9.8,1.284-12.51,6.413S851.947,205.7,855.77,207.5a1.767,1.767,0,0,1,1.1,1.464c-1.556-.074-4.062-1.635-5.051-4.862-1.675-5.464,1.473-11.2,5.651-14.577,4.043-3.27,8.612-3.382,10.939-2.095C874.032,190.545,872.139,197.566,871.313,200.093Z" transform="translate(-848.632 -184.484)" fill="#d8d8d8" fill-rule="evenodd"/>
          </g>
          <g id="Grupo_4267" data-name="Grupo 4267">
            <path id="Caminho_3596" data-name="Caminho 3596" d="M815.394,206.277a3.333,3.333,0,1,1-4.815,1.3A3.538,3.538,0,0,1,815.394,206.277Z" transform="translate(-807.271 -184.184)" fill="#424242" fill-rule="evenodd"/>
            <path id="Caminho_3597" data-name="Caminho 3597" d="M818.152,208.934c2.2,2.335-.366,5.562-3.291,4.155a2.91,2.91,0,0,0,4.484-.821A2.647,2.647,0,0,0,818.152,208.934Z" transform="translate(-809.831 -185.907)" fill="#8e8e8e" fill-rule="evenodd"/>
            <path id="Caminho_3598" data-name="Caminho 3598" d="M823.312,157.783c4.86,2.287,6.079,8.671,3.616,15.217l-3.192-1.885c1.3-4.295,1.316-8.1-2.152-9.733s-9.8,1.284-12.51,6.413-2.255,10.378,1.569,12.176a1.9,1.9,0,0,1-1.506,3.484c-.179-.068-.354-.147-.529-.229-5.51-2.593-6.731-9.6-2.821-16.987S817.8,155.19,823.312,157.783Z" transform="translate(-803.505 -156.952)" fill="#f2f2f2" fill-rule="evenodd"/>
            <path id="Caminho_3599" data-name="Caminho 3599" d="M829.611,175.306l-2.449-1.446c1.3-4.295,1.316-8.1-2.152-9.733s-9.8,1.284-12.51,6.413-2.255,10.378,1.569,12.176a1.77,1.77,0,0,1,1.1,1.464c-1.557-.074-4.063-1.635-5.052-4.862-1.674-5.464,1.472-11.2,5.652-14.577,4.043-3.27,8.611-3.383,10.939-2.095C832.33,165.759,830.437,172.78,829.611,175.306Z" transform="translate(-806.931 -159.697)" fill="#d8d8d8" fill-rule="evenodd"/>
          </g>
        </g>
        <g id="Grupo_4269" data-name="Grupo 4269" transform="translate(7.056 36.111)">
          <path id="Caminho_3600" data-name="Caminho 3600" d="M792.362,240.976c.284-2.163,1.919-3.107,3.652-2.1l9.509,5.657a6.161,6.161,0,0,1,2.624,5.737l-1.474,10.86c-.284,2.163-1.921,3.107-3.653,2.1l-9.508-5.656a6.158,6.158,0,0,1-2.624-5.737Z" transform="translate(-783.95 -238.471)" fill-rule="evenodd" fill="url(#linear-gradient-9)"/>
          <path id="Caminho_3601" data-name="Caminho 3601" d="M845.636,272.456c.284-2.163,1.919-3.107,3.653-2.1l9.508,5.657a6.162,6.162,0,0,1,2.625,5.737l-1.475,10.86c-.284,2.163-1.92,3.107-3.652,2.1l-9.508-5.657a6.159,6.159,0,0,1-2.625-5.737Z" transform="translate(-813.625 -256.006)" fill-rule="evenodd" fill="url(#linear-gradient-9)"/>
          <path id="Caminho_3602" data-name="Caminho 3602" d="M898.911,303.935c.283-2.163,1.919-3.107,3.652-2.1l9.509,5.657a6.159,6.159,0,0,1,2.624,5.737l-1.474,10.861c-.283,2.163-1.921,3.106-3.653,2.1l-9.508-5.657a6.158,6.158,0,0,1-2.625-5.737Z" transform="translate(-843.3 -273.541)" fill-rule="evenodd" fill="url(#linear-gradient-9)"/>
          <path id="Caminho_3603" data-name="Caminho 3603" d="M784.751,295.633c.284-2.164,1.919-3.107,3.653-2.1l9.508,5.657a6.162,6.162,0,0,1,2.624,5.737l-1.474,10.861c-.284,2.163-1.921,3.106-3.653,2.1l-9.508-5.657a6.157,6.157,0,0,1-2.625-5.736Z" transform="translate(-779.71 -268.917)" fill-rule="evenodd" fill="url(#linear-gradient-9)"/>
          <path id="Caminho_3604" data-name="Caminho 3604" d="M838.026,327.114c.284-2.163,1.919-3.107,3.652-2.1l9.508,5.657a6.16,6.16,0,0,1,2.625,5.736l-1.474,10.861c-.284,2.163-1.921,3.107-3.654,2.1l-9.508-5.657a6.157,6.157,0,0,1-2.624-5.737Z" transform="translate(-809.386 -286.452)" fill-rule="evenodd" fill="url(#linear-gradient-9)"/>
          <path id="Caminho_3605" data-name="Caminho 3605" d="M891.3,358.595c.284-2.164,1.919-3.107,3.653-2.1l9.508,5.657a6.16,6.16,0,0,1,2.624,5.737l-1.474,10.86c-.283,2.163-1.921,3.106-3.652,2.1l-9.508-5.658a6.157,6.157,0,0,1-2.625-5.737Z" transform="translate(-839.061 -303.987)" fill-rule="evenodd" fill="url(#linear-gradient-9)"/>
          <path id="Caminho_3606" data-name="Caminho 3606" d="M776.8,349.6c.283-2.163,1.919-3.107,3.653-2.1l9.508,5.658a6.161,6.161,0,0,1,2.624,5.737l-1.474,10.86c-.283,2.163-1.921,3.107-3.654,2.1l-9.507-5.658a6.155,6.155,0,0,1-2.625-5.737Z" transform="translate(-775.278 -298.978)" fill-rule="evenodd" fill="url(#linear-gradient-9)"/>
          <path id="Caminho_3607" data-name="Caminho 3607" d="M830.069,381.081c.284-2.164,1.919-3.107,3.653-2.1l9.508,5.656a6.161,6.161,0,0,1,2.625,5.737l-1.474,10.86c-.284,2.163-1.922,3.106-3.654,2.1l-9.508-5.658a6.157,6.157,0,0,1-2.625-5.737Z" transform="translate(-804.954 -316.513)" fill-rule="evenodd" fill="url(#linear-gradient-9)"/>
          <path id="Caminho_3608" data-name="Caminho 3608" d="M883.344,412.56c.284-2.164,1.919-3.107,3.653-2.1l9.508,5.657a6.161,6.161,0,0,1,2.625,5.737l-1.474,10.861c-.284,2.163-1.921,3.106-3.653,2.1l-9.508-5.657a6.157,6.157,0,0,1-2.624-5.737Z" transform="translate(-834.629 -334.048)" fill-rule="evenodd" fill="url(#linear-gradient-9)"/>
        </g>
      </g>
      <g id="Grupo_4271" data-name="Grupo 4271" transform="translate(45.408 44.276)">
        <ellipse id="Elipse_135" data-name="Elipse 135" cx="10.356" cy="13.504" rx="10.356" ry="13.504" transform="matrix(0.968, -0.251, 0.251, 0.968, 0, 5.208)" fill="#fff" opacity="0.5"/>
        <path id="Caminho_3609" data-name="Caminho 3609" d="M642.341,291.938c.2-1.539,1.363-2.192,2.593-1.456L682.357,311.7a4.474,4.474,0,0,1,1.861,4.121l-.391,3.044c-.2,1.538-1.364,2.191-2.593,1.455L643.812,299.1a4.473,4.473,0,0,1-1.862-4.121Z" transform="translate(-614.854 -275.44)" fill="#fff" fill-rule="evenodd" opacity="0.5"/>
        <path id="Caminho_3610" data-name="Caminho 3610" d="M639.314,318.115c.119-.909.8-1.294,1.531-.859l22.1,12.529a2.644,2.644,0,0,1,1.1,2.434l-.231,1.8c-.12.909-.806,1.294-1.532.86l-22.1-12.53a2.641,2.641,0,0,1-1.1-2.434Z" transform="translate(-613.264 -290.422)" fill="#fff" fill-rule="evenodd" opacity="0.5"/>
      </g>
      <g id="Grupo_4277" data-name="Grupo 4277" transform="translate(229.989 105.142)">
        <path id="Caminho_3611" data-name="Caminho 3611" d="M1004.25,406.775c.236-1.8-.253-2.88.638-3.9a10.532,10.532,0,0,1,3.107-1.761,5.731,5.731,0,0,1,4.949.651l22.632,13.465c4.121,2.387,6.922,8.506,6.246,13.655l-3.508,25.851a7.865,7.865,0,0,1-2.165,4.83,8.416,8.416,0,0,1-3.734,1.849c-1.172.147-1.482-.911-2.8-1.672l-22.631-13.465c-4.127-2.389-6.922-8.507-6.247-13.655Z" transform="translate(-999.252 -397.931)" fill-rule="evenodd" fill="url(#linear-gradient-45)"/>
        <path id="Caminho_3612" data-name="Caminho 3612" d="M1001.118,408.629c.675-5.149,4.567-7.4,8.694-5.007l22.631,13.465c4.122,2.386,6.922,8.506,6.246,13.655l-3.508,25.85c-.675,5.149-4.573,7.393-8.695,5.007l-22.631-13.466c-4.127-2.389-6.922-8.506-6.247-13.655Z" transform="translate(-997.507 -398.964)" fill="#fff" fill-rule="evenodd"/>
        <path id="Caminho_3613" data-name="Caminho 3613" d="M1005.275,408.628c.675-5.15,4.567-7.4,8.694-5.007l22.632,13.466c4.121,2.387,6.922,8.506,6.246,13.655l-.33,2.427a13.3,13.3,0,0,0-1.38-.923l-36.167-21.376Z" transform="translate(-1001.665 -398.963)" fill-rule="evenodd" fill="url(#linear-gradient-46)"/>
        <g id="Grupo_4275" data-name="Grupo 4275" transform="translate(8.783)">
          <g id="Grupo_4272" data-name="Grupo 4272" transform="translate(16.689 9.954)">
            <path id="Caminho_3614" data-name="Caminho 3614" d="M1060.351,438.926a1.5,1.5,0,1,1-2.162.583A1.589,1.589,0,0,1,1060.351,438.926Z" transform="translate(-1056.703 -429.005)" fill="#424242" fill-rule="evenodd"/>
            <path id="Caminho_3615" data-name="Caminho 3615" d="M1061.589,440.118a1.2,1.2,0,0,1-1.478,1.866,1.307,1.307,0,0,0,2.013-.369A1.188,1.188,0,0,0,1061.589,440.118Z" transform="translate(-1057.852 -429.779)" fill="#8e8e8e" fill-rule="evenodd"/>
            <path id="Caminho_3616" data-name="Caminho 3616" d="M1063.905,417.15c2.182,1.027,2.73,3.894,1.624,6.833l-1.434-.847c.583-1.929.591-3.638-.966-4.37s-4.4.576-5.617,2.879-1.013,4.66.7,5.467a.852.852,0,0,1-.676,1.565c-.08-.031-.159-.066-.237-.1-2.474-1.164-3.022-4.309-1.267-7.628S1061.431,415.986,1063.905,417.15Z" transform="translate(-1055.011 -416.777)" fill="#f2f2f2" fill-rule="evenodd"/>
            <path id="Caminho_3617" data-name="Caminho 3617" d="M1066.734,425.019l-1.1-.649c.583-1.929.591-3.638-.967-4.37s-4.4.576-5.617,2.879-1.013,4.66.7,5.467a.794.794,0,0,1,.492.657,2.9,2.9,0,0,1-2.268-2.183c-.752-2.453.661-5.028,2.537-6.545a4.709,4.709,0,0,1,4.913-.94C1067.955,420.731,1067.1,423.884,1066.734,425.019Z" transform="translate(-1056.55 -418.01)" fill="#d8d8d8" fill-rule="evenodd"/>
          </g>
          <g id="Grupo_4273" data-name="Grupo 4273" transform="translate(8.295 4.93)">
            <path id="Caminho_3618" data-name="Caminho 3618" d="M1041.4,427.586a1.5,1.5,0,1,1-2.162.583A1.588,1.588,0,0,1,1041.4,427.586Z" transform="translate(-1037.752 -417.665)" fill="#424242" fill-rule="evenodd"/>
            <path id="Caminho_3619" data-name="Caminho 3619" d="M1042.638,428.778a1.2,1.2,0,0,1-1.478,1.866,1.307,1.307,0,0,0,2.013-.369A1.189,1.189,0,0,0,1042.638,428.778Z" transform="translate(-1038.901 -418.439)" fill="#8e8e8e" fill-rule="evenodd"/>
            <path id="Caminho_3620" data-name="Caminho 3620" d="M1044.954,405.81c2.182,1.027,2.73,3.893,1.624,6.833l-1.434-.846c.583-1.928.591-3.638-.966-4.37s-4.4.576-5.617,2.879-1.013,4.66.7,5.468a.852.852,0,0,1-.676,1.564c-.08-.031-.159-.066-.237-.1-2.474-1.164-3.022-4.309-1.267-7.628S1042.48,404.646,1044.954,405.81Z" transform="translate(-1036.06 -405.437)" fill="#f2f2f2" fill-rule="evenodd"/>
            <path id="Caminho_3621" data-name="Caminho 3621" d="M1047.783,413.679l-1.1-.649c.583-1.928.591-3.638-.966-4.37s-4.4.576-5.617,2.879-1.013,4.66.7,5.468a.792.792,0,0,1,.492.657,2.9,2.9,0,0,1-2.268-2.183c-.752-2.453.661-5.028,2.537-6.545a4.709,4.709,0,0,1,4.912-.94C1049,409.392,1048.154,412.545,1047.783,413.679Z" transform="translate(-1037.599 -406.67)" fill="#d8d8d8" fill-rule="evenodd"/>
          </g>
          <g id="Grupo_4274" data-name="Grupo 4274">
            <path id="Caminho_3622" data-name="Caminho 3622" d="M1022.674,416.455a1.5,1.5,0,1,1-2.162.583A1.589,1.589,0,0,1,1022.674,416.455Z" transform="translate(-1019.027 -406.535)" fill="#424242" fill-rule="evenodd"/>
            <path id="Caminho_3623" data-name="Caminho 3623" d="M1023.912,417.649a1.2,1.2,0,0,1-1.478,1.865,1.307,1.307,0,0,0,2.013-.369A1.188,1.188,0,0,0,1023.912,417.649Z" transform="translate(-1020.175 -407.309)" fill="#8e8e8e" fill-rule="evenodd"/>
            <path id="Caminho_3624" data-name="Caminho 3624" d="M1026.229,394.68c2.183,1.027,2.73,3.893,1.624,6.833l-1.433-.847c.583-1.929.591-3.638-.966-4.371s-4.4.577-5.617,2.88-1.013,4.66.7,5.468a.852.852,0,0,1-.676,1.564c-.081-.031-.159-.066-.237-.1-2.474-1.164-3.022-4.309-1.266-7.628S1023.754,393.516,1026.229,394.68Z" transform="translate(-1017.335 -394.307)" fill="#f2f2f2" fill-rule="evenodd"/>
            <path id="Caminho_3625" data-name="Caminho 3625" d="M1029.057,402.549l-1.1-.649c.583-1.929.591-3.638-.966-4.371s-4.4.577-5.617,2.88-1.013,4.66.7,5.468a.793.793,0,0,1,.492.657,2.9,2.9,0,0,1-2.268-2.183c-.752-2.454.661-5.028,2.538-6.546a4.709,4.709,0,0,1,4.912-.94C1030.278,398.262,1029.428,401.415,1029.057,402.549Z" transform="translate(-1018.873 -395.54)" fill="#d8d8d8" fill-rule="evenodd"/>
          </g>
        </g>
        <g id="Grupo_4276" data-name="Grupo 4276" transform="translate(3.169 16.215)">
          <path id="Caminho_3626" data-name="Caminho 3626" d="M1012.331,432.037c.127-.971.861-1.395,1.64-.945l4.27,2.54a2.766,2.766,0,0,1,1.178,2.576l-.662,4.877c-.128.971-.863,1.394-1.64.944l-4.269-2.54a2.766,2.766,0,0,1-1.179-2.576Z" transform="translate(-1008.554 -430.912)" fill-rule="evenodd" fill="url(#linear-gradient-45)"/>
          <path id="Caminho_3627" data-name="Caminho 3627" d="M1036.253,446.173c.127-.971.862-1.4,1.64-.944l4.27,2.54a2.766,2.766,0,0,1,1.178,2.576l-.662,4.877c-.128.971-.862,1.395-1.64.945l-4.269-2.54a2.765,2.765,0,0,1-1.179-2.576Z" transform="translate(-1021.879 -438.786)" fill-rule="evenodd" fill="url(#linear-gradient-45)"/>
          <path id="Caminho_3628" data-name="Caminho 3628" d="M1060.175,460.308c.127-.971.862-1.395,1.64-.944l4.27,2.54a2.767,2.767,0,0,1,1.179,2.576l-.662,4.877c-.127.971-.862,1.395-1.64.944l-4.27-2.54a2.764,2.764,0,0,1-1.179-2.576Z" transform="translate(-1035.204 -446.66)" fill-rule="evenodd" fill="url(#linear-gradient-45)"/>
          <path id="Caminho_3629" data-name="Caminho 3629" d="M1008.914,456.58c.128-.971.862-1.395,1.64-.944l4.27,2.54a2.769,2.769,0,0,1,1.178,2.576l-.662,4.877c-.127.971-.862,1.395-1.64.944l-4.269-2.54a2.765,2.765,0,0,1-1.178-2.576Z" transform="translate(-1006.65 -444.583)" fill-rule="evenodd" fill="url(#linear-gradient-45)"/>
          <path id="Caminho_3630" data-name="Caminho 3630" d="M1032.836,470.716c.128-.971.862-1.4,1.64-.944l4.27,2.54a2.766,2.766,0,0,1,1.178,2.575l-.662,4.877c-.127.971-.863,1.395-1.641.944l-4.269-2.54a2.766,2.766,0,0,1-1.178-2.576Z" transform="translate(-1019.976 -452.457)" fill-rule="evenodd" fill="url(#linear-gradient-45)"/>
          <path id="Caminho_3631" data-name="Caminho 3631" d="M1056.759,484.851c.127-.971.861-1.4,1.64-.945l4.27,2.54a2.767,2.767,0,0,1,1.178,2.576l-.662,4.876c-.127.971-.863,1.395-1.64.945l-4.269-2.54a2.765,2.765,0,0,1-1.179-2.576Z" transform="translate(-1033.301 -460.331)" fill-rule="evenodd" fill="url(#linear-gradient-45)"/>
          <path id="Caminho_3632" data-name="Caminho 3632" d="M1005.341,480.813c.127-.971.862-1.4,1.64-.945l4.27,2.54a2.766,2.766,0,0,1,1.178,2.576l-.662,4.877c-.127.971-.862,1.395-1.64.945l-4.269-2.54a2.766,2.766,0,0,1-1.179-2.576Z" transform="translate(-1004.66 -458.082)" fill-rule="evenodd" fill="url(#linear-gradient-45)"/>
          <path id="Caminho_3633" data-name="Caminho 3633" d="M1029.263,494.949c.127-.971.862-1.4,1.64-.944l4.27,2.54a2.767,2.767,0,0,1,1.178,2.576L1035.69,504c-.128.971-.863,1.395-1.641.944l-4.269-2.54a2.765,2.765,0,0,1-1.179-2.576Z" transform="translate(-1017.985 -465.955)" fill-rule="evenodd" fill="url(#linear-gradient-45)"/>
          <path id="Caminho_3634" data-name="Caminho 3634" d="M1053.185,509.085c.127-.971.862-1.4,1.64-.944l4.27,2.54a2.765,2.765,0,0,1,1.178,2.576l-.662,4.877c-.128.971-.863,1.394-1.64.944l-4.269-2.54a2.765,2.765,0,0,1-1.179-2.576Z" transform="translate(-1031.311 -473.83)" fill-rule="evenodd" fill="url(#linear-gradient-45)"/>
        </g>
      </g>
      <g id="Grupo_4283" data-name="Grupo 4283" transform="translate(73.363 100.478)">
        <path id="Caminho_3635" data-name="Caminho 3635" d="M649.239,393.6c.186-1.415-.2-2.269.5-3.07a8.3,8.3,0,0,1,2.448-1.387,4.517,4.517,0,0,1,3.9.513l17.83,10.608c3.247,1.88,5.453,6.7,4.921,10.758l-2.765,20.365a6.194,6.194,0,0,1-1.705,3.805,6.628,6.628,0,0,1-2.942,1.457c-.923.116-1.167-.718-2.2-1.317L651.4,424.724c-3.251-1.882-5.453-6.7-4.921-10.758Z" transform="translate(-645.302 -386.633)" fill-rule="evenodd" fill="url(#linear-gradient-56)"/>
        <path id="Caminho_3636" data-name="Caminho 3636" d="M646.772,395.061c.532-4.056,3.6-5.826,6.849-3.944l17.83,10.608c3.247,1.88,5.453,6.7,4.921,10.758l-2.764,20.365c-.532,4.056-3.6,5.825-6.85,3.945l-17.829-10.608c-3.251-1.882-5.453-6.7-4.922-10.758Z" transform="translate(-643.927 -387.446)" fill="#fff" fill-rule="evenodd"/>
        <path id="Caminho_3637" data-name="Caminho 3637" d="M650.047,395.06c.532-4.057,3.6-5.826,6.849-3.945l17.83,10.608c3.247,1.88,5.453,6.7,4.921,10.757l-.26,1.912a10.416,10.416,0,0,0-1.087-.727l-28.493-16.84Z" transform="translate(-647.202 -387.446)" fill-rule="evenodd" fill="url(#linear-gradient-57)"/>
        <g id="Grupo_4281" data-name="Grupo 4281" transform="translate(6.919)">
          <g id="Grupo_4278" data-name="Grupo 4278" transform="translate(13.149 7.842)">
            <path id="Caminho_3638" data-name="Caminho 3638" d="M693.436,418.929a1.179,1.179,0,1,1-1.7.459A1.251,1.251,0,0,1,693.436,418.929Z" transform="translate(-690.563 -411.114)" fill="#424242" fill-rule="evenodd"/>
            <path id="Caminho_3639" data-name="Caminho 3639" d="M694.412,419.869a.943.943,0,0,1-1.164,1.47,1.029,1.029,0,0,0,1.586-.291A.936.936,0,0,0,694.412,419.869Z" transform="translate(-691.468 -411.723)" fill="#8e8e8e" fill-rule="evenodd"/>
            <path id="Caminho_3640" data-name="Caminho 3640" d="M696.237,401.774c1.719.808,2.151,3.067,1.28,5.383l-1.13-.667c.46-1.519.466-2.866-.761-3.443s-3.465.454-4.425,2.268-.8,3.671.555,4.307a.672.672,0,0,1-.532,1.233c-.063-.024-.126-.052-.187-.081-1.949-.917-2.381-3.395-1-6.009S694.288,400.857,696.237,401.774Z" transform="translate(-689.23 -401.48)" fill="#f2f2f2" fill-rule="evenodd"/>
            <path id="Caminho_3641" data-name="Caminho 3641" d="M698.466,407.973l-.866-.511c.46-1.519.466-2.866-.761-3.443s-3.465.454-4.425,2.268-.8,3.671.555,4.307a.626.626,0,0,1,.388.518,2.285,2.285,0,0,1-1.787-1.72c-.592-1.933.521-3.961,2-5.157a3.711,3.711,0,0,1,3.87-.741C699.428,404.6,698.758,407.08,698.466,407.973Z" transform="translate(-690.442 -402.451)" fill="#d8d8d8" fill-rule="evenodd"/>
          </g>
          <g id="Grupo_4279" data-name="Grupo 4279" transform="translate(6.535 3.884)">
            <path id="Caminho_3642" data-name="Caminho 3642" d="M678.506,409.995a1.179,1.179,0,1,1-1.7.459A1.251,1.251,0,0,1,678.506,409.995Z" transform="translate(-675.633 -402.18)" fill="#424242" fill-rule="evenodd"/>
            <path id="Caminho_3643" data-name="Caminho 3643" d="M679.482,410.935a.943.943,0,0,1-1.165,1.47,1.029,1.029,0,0,0,1.586-.291A.936.936,0,0,0,679.482,410.935Z" transform="translate(-676.538 -402.789)" fill="#8e8e8e" fill-rule="evenodd"/>
            <path id="Caminho_3644" data-name="Caminho 3644" d="M681.307,392.84c1.72.809,2.151,3.068,1.279,5.383l-1.129-.667c.459-1.519.466-2.866-.761-3.443s-3.465.454-4.425,2.268-.8,3.671.555,4.308a.671.671,0,0,1-.533,1.232c-.063-.024-.125-.052-.186-.081-1.95-.917-2.381-3.395-1-6.009S679.357,391.923,681.307,392.84Z" transform="translate(-674.3 -392.546)" fill="#f2f2f2" fill-rule="evenodd"/>
            <path id="Caminho_3645" data-name="Caminho 3645" d="M683.536,399.039l-.867-.511c.459-1.519.466-2.866-.761-3.443s-3.465.454-4.425,2.268-.8,3.671.555,4.307a.624.624,0,0,1,.388.517,2.285,2.285,0,0,1-1.787-1.72c-.592-1.933.521-3.961,2-5.157a3.709,3.709,0,0,1,3.87-.741C684.5,395.661,683.828,398.146,683.536,399.039Z" transform="translate(-675.512 -393.517)" fill="#d8d8d8" fill-rule="evenodd"/>
          </g>
          <g id="Grupo_4280" data-name="Grupo 4280">
            <path id="Caminho_3646" data-name="Caminho 3646" d="M663.754,401.227a1.179,1.179,0,1,1-1.7.459A1.251,1.251,0,0,1,663.754,401.227Z" transform="translate(-660.88 -393.411)" fill="#424242" fill-rule="evenodd"/>
            <path id="Caminho_3647" data-name="Caminho 3647" d="M664.729,402.167a.943.943,0,0,1-1.164,1.47,1.03,1.03,0,0,0,1.586-.291A.936.936,0,0,0,664.729,402.167Z" transform="translate(-661.785 -394.021)" fill="#8e8e8e" fill-rule="evenodd"/>
            <path id="Caminho_3648" data-name="Caminho 3648" d="M666.555,384.072c1.72.809,2.151,3.067,1.279,5.383l-1.129-.667c.459-1.519.465-2.866-.761-3.444s-3.466.454-4.425,2.269-.8,3.671.555,4.307a.672.672,0,0,1-.533,1.233c-.063-.024-.125-.052-.187-.081-1.95-.917-2.381-3.395-1-6.009S664.605,383.155,666.555,384.072Z" transform="translate(-659.548 -383.778)" fill="#f2f2f2" fill-rule="evenodd"/>
            <path id="Caminho_3649" data-name="Caminho 3649" d="M668.783,390.271l-.866-.511c.459-1.519.465-2.866-.762-3.444s-3.466.454-4.425,2.269-.8,3.671.555,4.307a.626.626,0,0,1,.388.518,2.285,2.285,0,0,1-1.787-1.72c-.593-1.933.521-3.961,2-5.157a3.709,3.709,0,0,1,3.87-.741C669.745,386.893,669.075,389.377,668.783,390.271Z" transform="translate(-660.76 -384.749)" fill="#d8d8d8" fill-rule="evenodd"/>
          </g>
        </g>
        <g id="Grupo_4282" data-name="Grupo 4282" transform="translate(2.496 12.774)">
          <path id="Caminho_3650" data-name="Caminho 3650" d="M655.606,413.5c.1-.765.679-1.1,1.292-.744l3.364,2a2.179,2.179,0,0,1,.928,2.03l-.521,3.842c-.1.765-.68,1.1-1.292.744l-3.364-2a2.18,2.18,0,0,1-.928-2.03Z" transform="translate(-652.63 -412.616)" fill-rule="evenodd" fill="url(#linear-gradient-56)"/>
          <path id="Caminho_3651" data-name="Caminho 3651" d="M674.452,424.638c.1-.765.679-1.1,1.292-.744l3.364,2a2.18,2.18,0,0,1,.928,2.03l-.521,3.842c-.1.765-.68,1.1-1.292.744l-3.364-2a2.178,2.178,0,0,1-.928-2.03Z" transform="translate(-663.128 -418.819)" fill-rule="evenodd" fill="url(#linear-gradient-56)"/>
          <path id="Caminho_3652" data-name="Caminho 3652" d="M693.3,435.774c.1-.765.679-1.1,1.292-.744l3.364,2a2.18,2.18,0,0,1,.928,2.03l-.522,3.842c-.1.765-.679,1.1-1.292.744l-3.363-2a2.177,2.177,0,0,1-.928-2.03Z" transform="translate(-673.626 -425.022)" fill-rule="evenodd" fill="url(#linear-gradient-56)"/>
          <path id="Caminho_3653" data-name="Caminho 3653" d="M652.914,432.837c.1-.765.679-1.1,1.292-.744l3.364,2a2.182,2.182,0,0,1,.929,2.03l-.522,3.842c-.1.765-.68,1.1-1.292.744l-3.363-2a2.178,2.178,0,0,1-.928-2.029Z" transform="translate(-651.13 -423.386)" fill-rule="evenodd" fill="url(#linear-gradient-56)"/>
          <path id="Caminho_3654" data-name="Caminho 3654" d="M671.76,443.974c.1-.765.679-1.1,1.292-.744l3.364,2a2.179,2.179,0,0,1,.928,2.029l-.521,3.842c-.1.765-.68,1.1-1.293.744l-3.364-2a2.18,2.18,0,0,1-.929-2.03Z" transform="translate(-661.628 -429.59)" fill-rule="evenodd" fill="url(#linear-gradient-56)"/>
          <path id="Caminho_3655" data-name="Caminho 3655" d="M690.607,455.11c.1-.765.679-1.1,1.292-.744l3.364,2a2.178,2.178,0,0,1,.928,2.029l-.521,3.842c-.1.765-.68,1.1-1.292.744l-3.363-2a2.177,2.177,0,0,1-.928-2.029Z" transform="translate(-672.126 -435.793)" fill-rule="evenodd" fill="url(#linear-gradient-56)"/>
          <path id="Caminho_3656" data-name="Caminho 3656" d="M650.1,451.929c.1-.765.679-1.1,1.292-.744l3.364,2a2.18,2.18,0,0,1,.928,2.03l-.521,3.842c-.1.765-.68,1.1-1.293.744l-3.364-2a2.179,2.179,0,0,1-.928-2.03Z" transform="translate(-649.562 -434.021)" fill-rule="evenodd" fill="url(#linear-gradient-56)"/>
          <path id="Caminho_3657" data-name="Caminho 3657" d="M668.945,463.065c.1-.765.679-1.1,1.292-.744l3.363,2a2.179,2.179,0,0,1,.928,2.03l-.521,3.842c-.1.765-.679,1.1-1.293.744l-3.363-2a2.178,2.178,0,0,1-.929-2.03Z" transform="translate(-660.06 -440.224)" fill-rule="evenodd" fill="url(#linear-gradient-56)"/>
          <path id="Caminho_3658" data-name="Caminho 3658" d="M687.792,474.2c.1-.765.679-1.1,1.292-.744l3.364,2a2.181,2.181,0,0,1,.928,2.03l-.522,3.842c-.1.765-.68,1.1-1.292.744l-3.363-2a2.178,2.178,0,0,1-.929-2.029Z" transform="translate(-670.558 -446.427)" fill-rule="evenodd" fill="url(#linear-gradient-56)"/>
        </g>
      </g>
    </g>
    <g id="Grupo_4287" data-name="Grupo 4287" transform="translate(257.542 195.654)">
      <g id="Grupo_4286" data-name="Grupo 4286" transform="translate(0)">
        <g id="Grupo_4285" data-name="Grupo 4285">
          <path id="Caminho_3659" data-name="Caminho 3659" d="M1121.909,323.232,1034.6,272.769a.555.555,0,0,0-.756.2h0a.555.555,0,0,0,.2.756l87.311,50.462a.555.555,0,0,0,.756-.2h0A.555.555,0,0,0,1121.909,323.232Z" transform="translate(-689.92 -260.126)" fill="#b9df62" fill-rule="evenodd"/>
          <path id="Caminho_3660" data-name="Caminho 3660" d="M421.841,658.284l-87.312-50.462a.555.555,0,0,0-.756.2h0a.555.555,0,0,0,.2.756l87.312,50.462a.554.554,0,0,0,.756-.2h0A.555.555,0,0,0,421.841,658.284Z" transform="translate(-299.963 -446.76)" fill="#b9df62" fill-rule="evenodd"/>
          <path id="Caminho_3661" data-name="Caminho 3661" d="M257.542,259.031V260.3l62.528,36.138a.55.55,0,0,0,.551-.953Z" transform="translate(-257.542 -252.515)" fill="#b9df62" fill-rule="evenodd"/>
          <path id="Caminho_3662" data-name="Caminho 3662" d="M1237.245,419.7l-86.683-50.1a.55.55,0,0,0-.75.2h0a.55.55,0,0,0,.2.75l86.683,50.1a.552.552,0,0,0,.751-.2h0A.551.551,0,0,0,1237.245,419.7Z" transform="translate(-754.519 -314.067)" fill="#b9df62" fill-rule="evenodd"/>
          <path id="Caminho_3663" data-name="Caminho 3663" d="M1020.4,252.146c.383-3.434,1.818-5.863,3.836-7.025.078-.045.152-.1.225-.133,2.087-1.078,4.718-.891,7.462.862,5.964,3.775,9.467,12.255,8.687,19.1-.587,5.274-5.94,9.83-11.523,6.292s-9.468-12.1-8.688-19.1Zm11.011-1.755a4.7,4.7,0,0,0-4.852-.517c-1.343.727-2.294,2.313-2.545,4.562-.5,4.5,1.995,10,5.58,12.269a4.516,4.516,0,0,0,6.487-1.494C1038.913,260.861,1035.542,253.017,1031.411,250.391Z" transform="translate(-682.419 -244.321)" fill="#b9df62" fill-rule="evenodd"/>
          <path id="Caminho_3664" data-name="Caminho 3664" d="M372.531,479.683a4.5,4.5,0,0,1,1.953-3.577c.04-.023.078-.048.115-.068a3.732,3.732,0,0,1,3.8.439,10.794,10.794,0,0,1,4.423,9.727c-.3,2.685-3.024,5-5.867,3.2s-4.82-6.159-4.423-9.725Zm5.606-.894a2.394,2.394,0,0,0-2.47-.263,2.863,2.863,0,0,0-1.3,2.323,7.085,7.085,0,0,0,2.841,6.247,2.3,2.3,0,0,0,3.3-.76C381.957,484.119,380.241,480.126,378.137,478.789Z" transform="translate(-321.566 -373.204)" fill="#b9df62" fill-rule="evenodd"/>
          <path id="Caminho_3665" data-name="Caminho 3665" d="M429.685,321.574,343,271.475a.551.551,0,0,0-.75.2h0a.551.551,0,0,0,.2.75l86.683,50.1a.552.552,0,0,0,.751-.2h0A.551.551,0,0,0,429.685,321.574Z" transform="translate(-304.686 -259.406)" fill="#b9df62" fill-rule="evenodd"/>
        </g>
      </g>
    </g>
  </g>
</svg>
