<svg xmlns="http://www.w3.org/2000/svg" xmlns:xlink="http://www.w3.org/1999/xlink" width="357.76" height="395.76" viewBox="0 0 357.76 395.76"><defs><linearGradient id="f07150e7-84e8-48b8-9d8c-48c66a8df901" x1="-682.54" y1="231.48" x2="-451.25" y2="231.48" gradientTransform="translate(753.87)" gradientUnits="userSpaceOnUse"><stop offset="0" stop-color="#f0f0f0"/><stop offset="0.53" stop-color="#f5f5f5"/><stop offset="1" stop-color="#fff"/></linearGradient><linearGradient id="aadf50ae-2b1f-4377-abbe-1a6d19cd9cf4" x1="-458.41" y1="-16160.8" x2="-418.7" y2="-16160.8" gradientTransform="translate(-347.37 -15870) rotate(180)" gradientUnits="userSpaceOnUse"><stop offset="0" stop-color="#818181"/><stop offset="0.16" stop-color="#868686"/><stop offset="0.34" stop-color="#949494"/><stop offset="0.54" stop-color="#acacac"/><stop offset="0.75" stop-color="#cdcdcd"/><stop offset="0.96" stop-color="#f7f7f7"/><stop offset="1" stop-color="#fff"/></linearGradient><linearGradient id="bc4b5e64-7498-4d37-b8b8-09e7d2d12009" x1="-653.13" y1="-16102.49" x2="-421.84" y2="-16102.49" gradientTransform="translate(-347.37 -15870) rotate(180)" gradientUnits="userSpaceOnUse"><stop offset="0" stop-color="#fff"/><stop offset="1" stop-color="#c9c9c9"/></linearGradient><linearGradient id="ece42a1a-d9d4-408f-90f1-45401bc809ea" x1="-651.56" y1="357.48" x2="-324.89" y2="357.48" gradientTransform="translate(753.87)" gradientUnits="userSpaceOnUse"><stop offset="0" stop-color="#c5c5c5"/><stop offset="0.24" stop-color="#cacaca"/><stop offset="0.53" stop-color="#d8d8d8"/><stop offset="0.84" stop-color="#f0f0f0"/><stop offset="1" stop-color="#fff"/></linearGradient><linearGradient id="fe194f68-03ae-4707-90e5-1a37c38e8d4c" x1="-776.46" y1="-16216.59" x2="-449.61" y2="-16216.59" gradientTransform="translate(-347.37 -15870) rotate(180)" xlink:href="#f07150e7-84e8-48b8-9d8c-48c66a8df901"/><linearGradient id="b2d2e750-7c72-4d79-b7bf-13d912359ae1" x1="-709.23" y1="-16206.03" x2="-481.08" y2="-16206.03" gradientTransform="translate(-347.37 -15870) rotate(180)" xlink:href="#f07150e7-84e8-48b8-9d8c-48c66a8df901"/><linearGradient id="b329a2c9-955d-4814-8bf3-9a279025c2a3" x1="-486.44" y1="365.14" x2="-402.78" y2="365.14" xlink:href="#f07150e7-84e8-48b8-9d8c-48c66a8df901"/></defs><g style="isolation:isolate"><g id="a25b1dd4-1a1d-4f04-9fbf-b8607cc40d55" data-name="Camada 1"><path d="M302.58,245.87,277.53,97.23l2-.84-3-1.74v0a2.17,2.17,0,0,0-2.33.16L74,210.43a5.63,5.63,0,0,0-2.6,5.08L96.62,365.33a1.88,1.88,0,0,0,1,1.52h0l3,1.71.51-2.76-.17.05L300,251A5.63,5.63,0,0,0,302.58,245.87Z" transform="translate(-71.33 -53.78)" fill="url(#f07150e7-84e8-48b8-9d8c-48c66a8df901)"/><path d="M75.08,214.49,71.79,213a4.5,4.5,0,0,0-.42,2.48L96.62,365.33a1.88,1.88,0,0,0,1,1.52h0l3,1.71.51-2.76-.17.05L111,360Z" transform="translate(-71.33 -53.78)" fill="url(#aadf50ae-2b1f-4377-abbe-1a6d19cd9cf4)"/><path d="M303.12,252.75,102.9,368.35c-1.54.89-2.87.38-3.14-1.22L74.51,217.31a5.63,5.63,0,0,1,2.6-5.08L277.33,96.63c1.55-.89,2.87-.38,3.14,1.22l25.25,149.82A5.62,5.62,0,0,1,303.12,252.75Z" transform="translate(-71.33 -53.78)" fill="url(#bc4b5e64-7498-4d37-b8b8-09e7d2d12009)"/><polygon points="203.39 52.41 10.39 163.84 34.32 304.93 227.19 193.58 203.39 52.41" fill="#ff8b08"/><path d="M429,323.68l-10.93,5.71L308.49,266.13a8,8,0,0,0-7.15.3l-189,109.1c-1.81-1-10.06-5-10.06-5l4,10.42h0a2.39,2.39,0,0,0,1.12,1.24l115.39,66.63a8,8,0,0,0,7.15-.3L423.37,336.88a3.45,3.45,0,0,0,1.62-1.72h0Z" transform="translate(-71.33 -53.78)" fill="url(#ece42a1a-d9d4-408f-90f1-45401bc809ea)"/><path d="M427.29,325.48,229.11,439.9a8.14,8.14,0,0,1-7.33.3L103.51,371.92c-1.87-1.08-1.64-3,.53-4.23L302.22,253.27c2.17-1.25,5.46-1.39,7.33-.3l118.27,68.28C429.7,322.33,429.46,324.23,427.29,325.48Z" transform="translate(-71.33 -53.78)" fill="url(#fe194f68-03ae-4707-90e5-1a37c38e8d4c)"/><path d="M169.33,415.15V413c0-.21.13-.3.28-.22l7.67,4.43a.68.68,0,0,1,.27.53v2.18c0,.2-.12.3-.27.21l-7.67-4.43A.67.67,0,0,1,169.33,415.15Z" transform="translate(-71.33 -53.78)" fill="#ff8b08"/><path d="M180.79,421.77v-2.18c0-.2.13-.3.28-.21l7.67,4.43a.68.68,0,0,1,.28.53v2.18c0,.2-.13.3-.28.21l-7.67-4.43A.68.68,0,0,1,180.79,421.77Z" transform="translate(-71.33 -53.78)" fill="#ff8b08"/><path d="M134.35,365.53,299,270.44a3.55,3.55,0,0,1,3.55,0l58.64,33.93a1.27,1.27,0,0,1,0,2.19l-164.61,95a3.57,3.57,0,0,1-3.55,0l-58.72-33.89A1.26,1.26,0,0,1,134.35,365.53Z" transform="translate(-71.33 -53.78)" fill="url(#b2d2e750-7c72-4d79-b7bf-13d912359ae1)"/><path d="M134.35,367.72l.59.34L299,273.32a3.52,3.52,0,0,1,3.55,0l58.05,33.59.59-.34a1.27,1.27,0,0,0,0-2.19l-58.64-33.93a3.55,3.55,0,0,0-3.55,0L134.35,365.53A1.26,1.26,0,0,0,134.35,367.72Z" transform="translate(-71.33 -53.78)" fill="#b2b2b2"/><polygon points="235.69 225.26 92.63 307.85 86.27 304.18 229.32 221.59 235.69 225.26" fill="#ff8b08"/><polygon points="251.28 234.26 117.1 311.73 110.74 308.06 244.92 230.59 251.28 234.26" fill="#ff8b08"/><polygon points="261.44 240.13 103.45 331.34 97.09 327.67 255.08 236.45 261.44 240.13" fill="#ff8b08"/><polygon points="271.59 245.99 113.61 337.2 107.25 333.53 265.23 242.32 271.59 245.99" fill="#ff8b08"/><polygon points="281.75 251.85 123.77 343.07 117.41 339.39 275.39 248.18 281.75 251.85" fill="#ff8b08"/><polygon points="83.98 312.84 77.62 316.52 71.26 312.84 77.62 309.17 83.98 312.84" fill="#ff8b08"/><polygon points="106.42 317.9 93.22 325.52 86.86 321.85 100.06 314.23 106.42 317.9" fill="#ff8b08"/><path d="M305.38,388.54l44.41-25.64c1.73-1,1.73-2.63,0-3.63l-30.37-17.53a7,7,0,0,0-6.29,0l-44.4,25.64c-1.74,1-1.74,2.63,0,3.63l30.36,17.53A7,7,0,0,0,305.38,388.54Z" transform="translate(-71.33 -53.78)" fill="url(#b329a2c9-955d-4814-8bf3-9a279025c2a3)"/><path d="M268.73,368.86l44.4-25.63a6.91,6.91,0,0,1,6.29,0l30.37,17.53a2.8,2.8,0,0,1,1.09,1.07c.46-.88.11-1.86-1.09-2.56l-30.37-17.53a7,7,0,0,0-6.29,0l-44.4,25.64c-1.2.69-1.55,1.68-1.09,2.56A2.63,2.63,0,0,1,268.73,368.86Z" transform="translate(-71.33 -53.78)" fill="#9198db"/><g opacity="0.16" style="mix-blend-mode:multiply"><polygon points="119.83 37.21 120.21 172.12 184.66 134.91 184.28 0 119.83 37.21" fill="#2f3536"/></g><polygon points="131.8 37.21 132.18 172.12 196.63 134.91 196.25 0 131.8 37.21" fill="#fff1e6"/><g style="isolation:isolate"><path d="M245.79,125.91l-.4,5.72c.4-.41.8-.84,1.19-1.28v0l.38-.43-.85-4.19c0-.09-.1-.1-.17-.06A.37.37,0,0,0,245.79,125.91Z" transform="translate(-71.33 -53.78)" fill="#a54e00"/><path d="M230,134.85a.35.35,0,0,0-.16.26l-.4,5.76c.36-.05.72-.1,1.09-.17l.74-.43-1.11-5.37C230.17,134.81,230.1,134.8,230,134.85Z" transform="translate(-71.33 -53.78)" fill="#a54e00"/><path d="M241.76,108.89a14.67,14.67,0,0,1-4.44,4.45,5.68,5.68,0,0,1-4.08.78V118a4.58,4.58,0,0,0,0,.53c.24,2.31,2.05,3.17,4.24,1.91a9.46,9.46,0,0,0,4.25-7.13v-4.45Z" transform="translate(-71.33 -53.78)" fill="#ebd6bf"/><path d="M236.91,138.3l.08-.05.4-.22.27-.16.09-.06.18-.1.11-.07.16-.1.12-.08.15-.09.13-.08.14-.09.13-.09L239,137l.14-.09.13-.09.13-.09.13-.09.14-.1.12-.09.15-.1.11-.08.15-.11.11-.08.16-.11.1-.08.16-.12.09-.07.17-.13.09-.07.17-.13.07-.06.19-.15.26-.2.25-.21c1-.84,2-1.73,2.9-2.67l.47-.48.4-5.72a.37.37,0,0,1,.16-.26c.07,0,.15,0,.17.06l.85,4.19c.25-.28.49-.57.72-.86s.48-.58.71-.87.47-.6.69-.9c.35-.46.68-.92,1-1.38l.64-.94.63-1c.31-.48.6-1,.9-1.46a16,16,0,0,0-.84-5.41c-1.87-5.21-9.1-4-9.48-3.9l-.18.12a9.46,9.46,0,0,1-4.25,7.13c-2.19,1.26-4,.4-4.24-1.91l-.1.06c-.35.43-7,8.5-8.42,13.54a23,23,0,0,0-.49,8.31l.58.16c.22.05.41.1.61.13l.63.11.65.06.32,0,.35,0h1l.7-.05.36,0,.4-5.76a.35.35,0,0,1,.16-.26c.08,0,.15,0,.16.05l1.11,5.37-.74.43c.27,0,.53-.11.81-.18l.82-.22.42-.13.83-.28.45-.17.4-.16.44-.18.45-.21.41-.18.46-.23.41-.22Z" transform="translate(-71.33 -53.78)" fill="#d86c00"/><path d="M225.53,99.43c-5.86,7.79-9.72,17.65-9.69,26.31,0,13.64,9.68,19.14,21.55,12.29s21.45-23.46,21.41-37.1c0-7.52-3-12.57-7.6-14.43a3.65,3.65,0,0,1-1,3.18,11.17,11.17,0,0,1-2.56,2.07,4.36,4.36,0,0,1-.42.23c0,.15,0,.3,0,.45v.24c0,4.51-2.24,11.44-5.52,16.22v4.45l.18-.12c.38-.06,7.61-1.31,9.48,3.9a16,16,0,0,1,.84,5.41,51.45,51.45,0,0,1-5.3,7.37c-.51.59-1,1.17-1.58,1.73a37,37,0,0,1-8,6.4,22.35,22.35,0,0,1-6.84,2.67c-.37.07-.73.12-1.09.17a12.63,12.63,0,0,1-5.19-.4,23,23,0,0,1,.49-8.31c1.47-5,8.07-13.11,8.42-13.54a1.6,1.6,0,0,0,.07-.59v-3.91c-2.08-.45-3.8-2.22-4.84-4.56C228.25,109.44,224.18,106,225.53,99.43Z" transform="translate(-71.33 -53.78)" fill="#7d7d7d"/><path d="M247,92.09c-1,6.41-4.95,15.09-9.72,17.84-3.16,1.83-6,.65-7.83-1.88a16.22,16.22,0,0,1-1.08,1.51c1.67,3.75,5,6,8.92,3.78,5.52-3.19,10-14.33,10-20.67v-.19c0-.2,0-.35,0-.5Z" transform="translate(-71.33 -53.78)" fill="#e9d0b4"/><path d="M232.11,97.94a17.83,17.83,0,0,1-2.63,10.11c1.84,2.53,4.67,3.71,7.83,1.88,4.77-2.75,8.74-11.43,9.72-17.84a7.16,7.16,0,0,1-.85.34c0,2.13-.47,4.13-2.23,5.14-2.39,1.38-3.69-.4-4.4-2.53a12.39,12.39,0,0,1-1.92,1.37,8.66,8.66,0,0,1-5.17,1.24l-.05.22Z" transform="translate(-71.33 -53.78)" fill="#ebd6bf"/><path d="M225.75,98.49h0c-.08.32-.16.63-.22.94-1.35,6.57,2.72,10,2.87,10.13a16.22,16.22,0,0,0,1.08-1.51,17.83,17.83,0,0,0,2.63-10.11l.3-.07.05-.22.78-3.68-.78,3.68a8.66,8.66,0,0,0,5.17-1.24A12.39,12.39,0,0,0,239.55,95c.71,2.13,2,3.91,4.4,2.53,1.76-1,2.28-3,2.23-5.14a17.4,17.4,0,0,0-.46-3.43h0a17.4,17.4,0,0,1,.46,3.43,7.16,7.16,0,0,0,.85-.34l.23-.11a4.36,4.36,0,0,0,.42-.23,11.17,11.17,0,0,0,2.56-2.07,3.65,3.65,0,0,0,1-3.18c-.63-3.68-6.32-7.3-13.54-3.13l-.88.54h0c-.17-1.4-.73-2.4-2-2.43a1.9,1.9,0,0,0-1,.28c-1.85,1.06-3,5-3.64,8.46a9,9,0,0,0-3.22,1.07,7.73,7.73,0,0,0-3.11,3.43C222.59,97.23,223.86,98.21,225.75,98.49Zm2.28.06c.46,0,.93-.07,1.38-.13C229,98.48,228.49,98.52,228,98.55Zm-.94,0h0Z" transform="translate(-71.33 -53.78)" fill="#ff8b08"/></g><path d="M211.28,193.65a3.4,3.4,0,0,0-1.54,2.67c0,1,.69,1.37,1.55.88L264,166.79a3.38,3.38,0,0,0,1.55-2.66c0-1-.7-1.38-1.56-.88Z" transform="translate(-71.33 -53.78)" fill="#fff"/><path d="M211.28,201.66a3.4,3.4,0,0,0-1.54,2.67c0,1,.69,1.37,1.55.88L264,174.8a3.38,3.38,0,0,0,1.55-2.66c0-1-.7-1.38-1.56-.88Z" transform="translate(-71.33 -53.78)" fill="#fff"/><path d="M211.28,209.68a3.37,3.37,0,0,0-1.54,2.66c0,1,.69,1.38,1.55.89L264,182.82a3.4,3.4,0,0,0,1.55-2.67c0-1-.7-1.37-1.56-.88Z" transform="translate(-71.33 -53.78)" fill="#fff"/><path d="M211.28,177.15a3.39,3.39,0,0,0-1.54,2.67c0,1,.69,1.38,1.55.88L264,150.3a3.41,3.41,0,0,0,1.55-2.67c0-1-.7-1.38-1.56-.89Z" transform="translate(-71.33 -53.78)" fill="#fff"/><path d="M229.39,173.49a3.67,3.67,0,0,0-1.66,2.87c0,1.06.75,1.49,1.67.95l34-19.62a3.65,3.65,0,0,0,1.66-2.87c0-1.06-.75-1.48-1.67-.95Z" transform="translate(-71.33 -53.78)" fill="#fff"/><polygon points="180.18 82.23 179.38 85.55 176.77 87.06 178.88 87.61 178.09 90.92 180.19 87.94 182.31 88.48 181.49 86.1 183.6 83.11 180.99 84.62 180.18 82.23" fill="#ff8b08"/><polygon points="172.96 86.4 172.16 89.72 169.55 91.23 171.67 91.77 170.87 95.09 172.98 92.11 175.09 92.65 174.28 90.26 176.38 87.28 173.78 88.79 172.96 86.4" fill="#ff8b08"/><polygon points="164.63 91.21 163.84 94.53 161.23 96.03 163.34 96.58 162.54 99.9 164.65 96.91 166.77 97.46 165.95 95.07 168.06 92.09 165.45 93.59 164.63 91.21" fill="#ff8b08"/><polygon points="156.03 96.18 155.23 99.49 152.62 101 154.74 101.54 153.94 104.86 156.05 101.88 158.16 102.42 157.35 100.04 159.46 97.06 156.84 98.56 156.03 96.18" fill="#ff8b08"/><polygon points="148.26 100.66 147.46 103.98 144.85 105.49 146.97 106.03 146.17 109.35 148.28 106.37 150.39 106.91 149.58 104.52 151.69 101.54 149.07 103.05 148.26 100.66" fill="#ff8b08"/><g opacity="0.16" style="mix-blend-mode:multiply"><polygon points="52.22 115.38 52.6 250.3 117.05 213.09 116.67 78.17 52.22 115.38" fill="#2f3536"/></g><polygon points="62.78 115.38 63.16 250.3 127.62 213.09 127.23 78.17 62.78 115.38" fill="#fff1e6"/><path d="M151.38,198.74c-2.95,6.24,1.42,5.92,7.49,3,.86-1.15,1.56-2,1.92-2.49a4.21,4.21,0,0,1,0-.72l0-4.12c-2.9-.62-5.11-3.67-5.93-7.35l-.32.26a4,4,0,0,1-.26-1C154.44,189.35,154.59,191.94,151.38,198.74Z" transform="translate(-71.33 -53.78)" fill="#d86c00"/><g style="isolation:isolate"><path d="M174.79,163.91a28.43,28.43,0,0,1,.57,5.53,18.06,18.06,0,0,1,.25,3.86c.7,5.51,3.1,5.45,3.41,11.27.1,1.85-2.87,5.15-6.93,8.48,2.48-.05,6.77.44,8.14,4.25a17.63,17.63,0,0,1,.86,6.53,51.85,51.85,0,0,1-5.47,7.24c-.58.64-1.16,1.25-1.76,1.85a37.93,37.93,0,0,1-7.61,5.9,23.21,23.21,0,0,1-7.19,2.81,16.25,16.25,0,0,1-1.9.25,12.39,12.39,0,0,1-5.54-.79,23.21,23.21,0,0,1,.58-8c1-3.41,4.39-8.34,6.67-11.41-6.07,3-10.44,3.28-7.49-3,3.21-6.8,3.06-9.39,2.83-12.44a8.78,8.78,0,0,1-.12-1.79,27,27,0,0,1,.78-7.64c-6.76,8.39-11.3,19.42-11.27,29,0,14.33,10.18,20.11,22.65,12.91s22.55-24.65,22.51-39C188.73,169.05,183,163.11,174.79,163.91Z" transform="translate(-71.33 -53.78)" fill="#ffc48a"/><path d="M165.74,219.11l.09-.05.42-.24.27-.16.1,0,.18-.11.1-.06.17-.11.11-.07.16-.1.11-.07.17-.1a.41.41,0,0,1,.11-.07l.18-.13.17-.11.17-.11.13-.09.13-.09.15-.1.11-.08.15-.11L169,217l.15-.12.09-.06.18-.13.68-.52.25-.19.24-.2.26-.2c.39-.32.78-.65,1.16-1l.23-.21c.54-.48,1.07-1,1.59-1.49l.44-6.37a.35.35,0,0,1,.17-.28c.08-.05.15,0,.17.06l1,4.74a51.85,51.85,0,0,0,5.47-7.24,17.63,17.63,0,0,0-.86-6.53c-1.37-3.81-5.66-4.3-8.14-4.25a12.87,12.87,0,0,0-1.83.16l-.58.35a9.87,9.87,0,0,1-4.46,7.49c-2.24,1.3-4.11.46-4.43-1.84-.36.45-1.06,1.34-1.92,2.49-2.28,3.07-5.67,8-6.67,11.41a23.21,23.21,0,0,0-.58,8c.31.12.63.24.95.33s.44.12.66.18l.68.13.34.06.35,0,.36,0,.35,0,.73,0c.25,0,.49,0,.74,0l.38,0,.41-5.67a.35.35,0,0,1,.16-.28c.08,0,.15,0,.17.06l1.16,5.64q.42-.07.84-.18l.86-.23.45-.14.45-.14.42-.15.48-.18.41-.17.47-.19.47-.21.43-.21.08,0,.41-.2.44-.22Z" transform="translate(-71.33 -53.78)" fill="#7d7d7d"/><path d="M174.47,206.27a.35.35,0,0,0-.17.28l-.44,6.32v0c.45-.45.89-.9,1.32-1.37l.44-.48-1-4.74C174.62,206.23,174.55,206.22,174.47,206.27Z" transform="translate(-71.33 -53.78)" fill="#4c4c4c"/><path d="M157.73,215.93a.35.35,0,0,0-.16.28l-.41,5.67.23,0,.22,0h0l.2,0h0l.2,0h0l.2,0h0l.2,0h0l.21,0h0l.23,0L157.9,216C157.88,215.9,157.81,215.89,157.73,215.93Z" transform="translate(-71.33 -53.78)" fill="#4c4c4c"/><path d="M159.84,178.68a16.81,16.81,0,0,1-4.13,7.51c1.78,3.83,5.28,6.1,9.29,3.78s7.33-8.33,9.12-14.09q-.72.47-1.41.87C166.57,180.29,162.41,179.89,159.84,178.68Z" transform="translate(-71.33 -53.78)" fill="#ebd6bf"/><path d="M169.68,188.88a15.35,15.35,0,0,1-4.67,4.67,6,6,0,0,1-4.29.82l0,4.12a4.21,4.21,0,0,0,0,.72c.32,2.3,2.19,3.14,4.43,1.84a9.87,9.87,0,0,0,4.46-7.49,1.93,1.93,0,0,0,0-.24Z" transform="translate(-71.33 -53.78)" fill="#ebd6bf"/><path d="M155.71,186.19a12.3,12.3,0,0,1-.92.83c1.18,5.34,5.32,9.36,10.22,6.53s9-11.68,10.16-18.37c-.36.25-.71.48-1,.7-1.79,5.76-5.2,11.83-9.12,14.09S157.49,190,155.71,186.19Z" transform="translate(-71.33 -53.78)" fill="#ebd6bf"/><path d="M155.58,177.82q.38-1,.87-2l0,0v0C156.12,176.4,155.83,177.11,155.58,177.82Z" transform="translate(-71.33 -53.78)" fill="#7e7266"/><path d="M154.09,184.51c0-.19,0-.4,0-.61s0-.5.08-.76c0,.26-.06.52-.08.76s0,.42,0,.61a8.78,8.78,0,0,0,.12,1.79,4,4,0,0,0,.26,1l.32-.26a12.3,12.3,0,0,0,.92-.83,16.81,16.81,0,0,0,4.13-7.51,23,23,0,0,0,.67-3.39,23,23,0,0,1-.67,3.39c2.57,1.21,6.73,1.61,12.87-1.93q.69-.41,1.41-.87c.34-.22.69-.45,1-.7l.31-.22a16.34,16.34,0,0,0,.13-1.66,18.06,18.06,0,0,0-.25-3.86,28.43,28.43,0,0,0-.57-5.53c-.64-2.48-2.06-3.68-5.54-1.67a25.55,25.55,0,0,0-3.65,2.66,12.88,12.88,0,0,0-3.58,1.46,14.42,14.42,0,0,0-6.81,9.11c-.12.49-.24.95-.34,1.4A27,27,0,0,0,154.09,184.51Zm6.57-11.3-.69-3.66h0l.69,3.66Zm12.89-7.78a6.19,6.19,0,0,1,.47.55,6.36,6.36,0,0,1,.55,1,6.36,6.36,0,0,0-.55-1A6.19,6.19,0,0,0,173.55,165.43Zm-1.27-.92a4,4,0,0,1,.73.44A4,4,0,0,0,172.28,164.51Zm-1.84-.46-.47,0Zm-9.88,10.81c0-.36.06-.67.08-.92C160.62,174.19,160.6,174.5,160.56,174.86Zm.09-1.17c0-.14,0-.25,0-.33C160.66,173.44,160.66,173.55,160.65,173.69Zm-5.07,4.13c.16-.44.33-.89.52-1.32.07-.18.15-.36.22-.53l.12-.26h0a26.41,26.41,0,0,1,3.53-6.15h0a50.18,50.18,0,0,0-3.52,6.23Q156,176.86,155.58,177.82Zm-1.16,3.86c.12-.55.27-1.15.46-1.8C154.69,180.53,154.54,181.13,154.42,181.68Z" transform="translate(-71.33 -53.78)" fill="#d86c00"/><path d="M175.17,175.18l.31-.22a16.34,16.34,0,0,0,.13-1.66c.7,5.51,3.1,5.45,3.41,11.27.1,1.85-2.87,5.15-6.93,8.48a12.87,12.87,0,0,0-1.83.16l-.58.35a1.93,1.93,0,0,0,0-.24v-4.44A36.68,36.68,0,0,0,175.17,175.18Z" transform="translate(-71.33 -53.78)" fill="#d86c00"/><path d="M156.44,175.71v0l0,0a49.42,49.42,0,0,1,3.52-6.22A26.41,26.41,0,0,0,156.44,175.71Z" transform="translate(-71.33 -53.78)" fill="#d86c00"/></g><path d="M140.15,272.53a3.37,3.37,0,0,0-1.54,2.67c0,1,.69,1.37,1.55.88l52.66-30.41a3.38,3.38,0,0,0,1.55-2.66c0-1-.7-1.38-1.56-.88Z" transform="translate(-71.33 -53.78)" fill="#fff"/><path d="M140.15,280.54a3.36,3.36,0,0,0-1.54,2.67c0,1,.69,1.37,1.55.88l52.66-30.41a3.38,3.38,0,0,0,1.55-2.66c0-1-.7-1.38-1.56-.88Z" transform="translate(-71.33 -53.78)" fill="#fff"/><path d="M140.15,288.56a3.34,3.34,0,0,0-1.54,2.66c0,1,.69,1.38,1.55.89l52.66-30.41a3.4,3.4,0,0,0,1.55-2.67c0-1-.7-1.37-1.56-.88Z" transform="translate(-71.33 -53.78)" fill="#fff"/><path d="M140.15,256a3.36,3.36,0,0,0-1.54,2.67c0,1,.69,1.38,1.55.88l52.66-30.4a3.41,3.41,0,0,0,1.55-2.67c0-1-.7-1.38-1.56-.89Z" transform="translate(-71.33 -53.78)" fill="#fff"/><path d="M158.26,252.37a3.67,3.67,0,0,0-1.66,2.87c0,1.06.75,1.48,1.67.95l34-19.62a3.67,3.67,0,0,0,1.66-2.87c0-1.06-.75-1.48-1.67-.95Z" transform="translate(-71.33 -53.78)" fill="#fff"/><polygon points="112.56 165.34 111.77 168.66 109.16 170.17 111.27 170.71 110.47 174.03 112.58 171.05 114.7 171.59 113.88 169.2 115.99 166.22 113.38 167.73 112.56 165.34" fill="#a5a5a5"/><polygon points="105.35 169.51 104.55 172.82 101.94 174.33 104.06 174.88 103.26 178.19 105.36 175.21 107.48 175.76 106.67 173.37 108.77 170.39 106.16 171.89 105.35 169.51" fill="#ff8b08"/><polygon points="97.02 174.31 96.22 177.63 93.61 179.14 95.73 179.68 94.93 183 97.04 180.02 99.16 180.56 98.34 178.18 100.45 175.19 97.84 176.7 97.02 174.31" fill="#ff8b08"/><polygon points="88.42 179.28 87.62 182.6 85.01 184.11 87.13 184.65 86.33 187.97 88.44 184.99 90.55 185.53 89.74 183.14 91.84 180.16 89.23 181.67 88.42 179.28" fill="#ff8b08"/><polygon points="80.65 183.77 79.85 187.09 77.24 188.59 79.36 189.13 78.56 192.45 80.67 189.47 82.78 190.02 81.97 187.63 84.07 184.65 81.46 186.15 80.65 183.77" fill="#ff8b08"/><g opacity="0.16" style="mix-blend-mode:multiply"><polygon points="198.71 49.18 199.09 184.1 263.55 146.89 263.16 11.97 198.71 49.18" fill="#2f3536"/></g><polygon points="209.27 49.18 209.66 184.1 274.11 146.89 273.73 11.97 209.27 49.18" fill="#fff1e6"/><path d="M310.74,99.73c-.6.35-4,2.51-6.56,8.73,0,0,4,7.14,14.77.94.42-.24.85-.51,1.29-.79s.63-.41.95-.64l.29-.2c.1-.75,2.08-15-10.65-8.09Z" transform="translate(-71.33 -53.78)" fill="#636363"/><path d="M326.54,131.8a20.08,20.08,0,0,1,0,2.57c4.5-6.92,7.35-15.09,7.33-22.36,0-8.93-4.37-14.21-10.75-14.52.53,1.45,1,3,2.22,3.57,3.91,1.82-2.44,12.81-4.55,18.5s9.22,4,6.41,10.95A7.79,7.79,0,0,1,326.54,131.8Z" transform="translate(-71.33 -53.78)" fill="#ff8b08"/><path d="M301.15,149.81l-.23-.07Z" transform="translate(-71.33 -53.78)" fill="#382c70"/><path d="M301.2,149.82h0Z" transform="translate(-71.33 -53.78)" fill="#382c70"/><path d="M301.44,149.88l-.24-.06Z" transform="translate(-71.33 -53.78)" fill="#382c70"/><path d="M301.69,149.94l-.24-.05Z" transform="translate(-71.33 -53.78)" fill="#382c70"/><path d="M302,150l-.25-.06Z" transform="translate(-71.33 -53.78)" fill="#382c70"/><path d="M302.8,150.13l-.27,0Z" transform="translate(-71.33 -53.78)" fill="#382c70"/><path d="M303.1,150.17l-.28,0Z" transform="translate(-71.33 -53.78)" fill="#382c70"/><path d="M304.25,150.22h0Z" transform="translate(-71.33 -53.78)" fill="#382c70"/><path d="M321.94,140.38c-.1.11-.2.23-.31.34l-.37.4C321.49,140.87,321.72,140.63,321.94,140.38Z" transform="translate(-71.33 -53.78)" fill="#3b2e77"/><path d="M326,135.22c.19-.28.38-.56.56-.85C326.37,134.66,326.18,134.94,326,135.22Z" transform="translate(-71.33 -53.78)" fill="#382c70"/><path d="M325.42,136.05l.57-.83Z" transform="translate(-71.33 -53.78)" fill="#382c70"/><path d="M324.21,137.67l.6-.79Z" transform="translate(-71.33 -53.78)" fill="#382c70"/><path d="M323.9,138.07l.3-.38Z" transform="translate(-71.33 -53.78)" fill="#382c70"/><path d="M323.59,138.46l.31-.39Z" transform="translate(-71.33 -53.78)" fill="#382c70"/><path d="M319.48,142.88l.16-.15Z" transform="translate(-71.33 -53.78)" fill="#382c70"/><path d="M317.64,144.49l.07-.06Z" transform="translate(-71.33 -53.78)" fill="#382c70"/><path d="M315.57,146.06l.16-.12Z" transform="translate(-71.33 -53.78)" fill="#382c70"/><path d="M314.18,147l.09-.06Z" transform="translate(-71.33 -53.78)" fill="#382c70"/><path d="M312.53,147.91l.11-.06Z" transform="translate(-71.33 -53.78)" fill="#382c70"/><path d="M310.8,148.74l.17-.07Z" transform="translate(-71.33 -53.78)" fill="#382c70"/><path d="M309.69,149.18l.19-.07Z" transform="translate(-71.33 -53.78)" fill="#382c70"/><path d="M308.4,149.6l.2-.06Z" transform="translate(-71.33 -53.78)" fill="#382c70"/><path d="M306.33,150.06l.19,0Z" transform="translate(-71.33 -53.78)" fill="#382c70"/><path d="M302.38,115.56v0Z" transform="translate(-71.33 -53.78)" fill="#756c60"/><path d="M302.48,114.31a11.59,11.59,0,0,0-.1,1.43V116c0,6.06,4.31,11.76,9.58,8.71,4.47-2.58,8.21-10.61,9.23-16.69-.32.23-.64.44-.95.64-1.63,5.23-4.73,10.75-8.29,12.8C307.15,124.19,303.16,119.71,302.48,114.31Z" transform="translate(-71.33 -53.78)" fill="#e9d0b4"/><path d="M316.2,120.42a14,14,0,0,1-4.24,4.24,5.36,5.36,0,0,1-3.89.74v4.45c.07,2.16,1.65,3,3.58,1.91l1-.58a7.83,7.83,0,0,0,3.55-6.16v-4.6Z" transform="translate(-71.33 -53.78)" fill="#ebd6bf"/><path d="M304.17,108.48a18.42,18.42,0,0,0-1.79,7.08c0-.41.05-.83.1-1.25.68,5.4,4.67,9.88,9.47,7.1,3.56-2,6.66-7.57,8.29-12.8-.44.28-.87.55-1.29.79C308.2,115.6,304.37,108.84,304.17,108.48Z" transform="translate(-71.33 -53.78)" fill="#ebd6bf"/><g style="isolation:isolate"><path d="M324.82,136.86c.2-.26.39-.53.59-.8C325.21,136.33,325,136.6,324.82,136.86Z" transform="translate(-71.33 -53.78)" fill="#382c70"/><path d="M323.28,138.84l.29-.36Z" transform="translate(-71.33 -53.78)" fill="#382c70"/><path d="M323,139.23l.31-.37Z" transform="translate(-71.33 -53.78)" fill="#382c70"/><path d="M320.87,141.52l.36-.38Z" transform="translate(-71.33 -53.78)" fill="#382c70"/><path d="M320.4,136.46l-.4,5.75a.1.1,0,0,0,.06.12l.77-.77,0,0,.36-.37,0,0,.37-.39-.92-4.46c0-.08-.08-.09-.15,0A.35.35,0,0,0,320.4,136.46Z" transform="translate(-71.33 -53.78)" fill="#bf946d"/><path d="M320.83,141.56l-.77.77-.17.16C320.21,142.19,320.52,141.88,320.83,141.56Z" transform="translate(-71.33 -53.78)" fill="#3b2e77"/><path d="M318.9,143.41l.55-.5Z" transform="translate(-71.33 -53.78)" fill="#382c70"/><path d="M317.41,144.67l.09-.06Z" transform="translate(-71.33 -53.78)" fill="#382c70"/><path d="M311.41,148.47l.07,0Z" transform="translate(-71.33 -53.78)" fill="#382c70"/><path d="M309.91,149.1l.19-.07Z" transform="translate(-71.33 -53.78)" fill="#382c70"/><path d="M306.54,150l.18,0Z" transform="translate(-71.33 -53.78)" fill="#382c70"/><path d="M305.36,145a.36.36,0,0,0-.16.26l-.35,5a14.57,14.57,0,0,0,1.69-.19l-1-5C305.49,145,305.42,145,305.36,145Z" transform="translate(-71.33 -53.78)" fill="#bf946d"/><path d="M306.54,150Z" transform="translate(-71.33 -53.78)" fill="#382c70"/><path d="M304.85,150.21h0Z" transform="translate(-71.33 -53.78)" fill="#382c70"/><path d="M313.12,147.59l.07,0,.25-.14.25-.14.07-.05.17-.1.09-.05.16-.1.09-.06.17-.11.31-.19.24-.16.09-.06.15-.1.1-.07.14-.09.1-.07.16-.12.14-.1.15-.11.12-.08.11-.09.13-.08.11-.09.12-.09.11-.08.46-.36.09-.08.14-.11.09-.07.14-.11.08-.06.15-.13.38-.32a2,2,0,0,1,.19-.16l.21-.19.22-.19.57-.52.2-.19.21-.2.21-.2a.1.1,0,0,1-.06-.12l.4-5.75a.35.35,0,0,1,.16-.25c.07,0,.13,0,.15,0l.92,4.46c.11-.11.21-.23.31-.34l.35-.38.32-.37c.13-.16.23-.27.33-.38l.32-.39.31-.38.33-.41.3-.38.61-.81.6-.82.58-.84c.19-.28.38-.56.56-.85a20.08,20.08,0,0,0,0-2.57,14.06,14.06,0,0,0-.76-3.74c-1.78-5-8.68-3.77-9-3.71l-.53.32V125a7.83,7.83,0,0,1-3.55,6.16l-1,.58c-1.93,1.11-3.51.25-3.58-1.91-1.27,1.6-6.52,8.36-7.75,12.58a21,21,0,0,0-.56,6.88l.31.13.33.13.23.08.27.08a5.26,5.26,0,0,0,.53.15c.28.07.54.13.82.18a12.2,12.2,0,0,0,2.59.15l.35-5a.36.36,0,0,1,.16-.26c.06,0,.13,0,.15.06l1,5a16.65,16.65,0,0,0,1.64-.36q.63-.16,1.26-.39l.21-.08.23-.08.83-.33.22-.1.09,0,.14-.06.1,0,.14-.07.11-.05.12-.06a.61.61,0,0,0,.14-.07l.16-.07.18-.09.09,0,.15-.07.11-.06.14-.07.1-.06.15-.08.1-.05Z" transform="translate(-71.33 -53.78)" fill="#ffc48a"/><path d="M309.23,96.46a18,18,0,0,0-4.52,4.24,10.47,10.47,0,0,0-1.6,2.63,18.1,18.1,0,0,0-.69,3.82,17.35,17.35,0,0,1-2.12,5.46c-.69,1.23-1.48,2.41-2.15,3.66a11.39,11.39,0,0,0-.93,2.31,7.72,7.72,0,0,0-.11,3.92c.27,1.14,3.5,4.61,3.89,5.65,2.13,5.68-2.81,9.75-3.85,18.09a9.93,9.93,0,0,0-.08,1.27c0,2.61,1.36,3,3.34,2.06l-.64-.26a21,21,0,0,1,.56-6.88c1.23-4.22,6.48-11,7.75-12.58V125.4c-3.34-.71-5.68-5-5.69-9.45v-.19a18.27,18.27,0,0,1,1.8-7.3c2.59-6.22,6-8.38,6.56-8.73,12.82-7,10.84,7.29,10.74,8l-.29.2a33.32,33.32,0,0,1-5,12.45v4.25l.53-.32c.36-.06,7.26-1.26,9,3.71a14.06,14.06,0,0,1,.76,3.74,7.79,7.79,0,0,0,.67-1.29c2.81-6.92-8.52-5.26-6.41-10.95s8.46-16.68,4.55-18.5c-1.25-.58-1.69-2.12-2.22-3.57a6,6,0,0,0-1.36-2.41c-1.3-1.16-3.27-.88-5.27-.32-.95.27-1.9.58-2.84.78l-.19,0a28,28,0,0,0-3.11.37A5.9,5.9,0,0,0,309.23,96.46Z" transform="translate(-71.33 -53.78)" fill="#636363"/></g><path d="M297.22,118.58a39.73,39.73,0,0,0-4.35,17.11c0,5.34,1.58,9.37,4.2,11.82a10.19,10.19,0,0,1,.08-1.28c1-8.33,6-12.4,3.85-18.08-.39-1-3.62-4.51-3.89-5.65A7.72,7.72,0,0,1,297.22,118.58Z" transform="translate(-71.33 -53.78)" fill="#ff8b08"/><path d="M314.27,146.91l.17-.1Z" transform="translate(-71.33 -53.78)" fill="#382c70"/><path d="M311.19,148.57l.06,0Z" transform="translate(-71.33 -53.78)" fill="#382c70"/><path d="M288,200.7a3.36,3.36,0,0,0-1.53,2.66c0,1,.69,1.38,1.54.88l52.67-30.4a3.4,3.4,0,0,0,1.54-2.67c0-1-.7-1.37-1.55-.88Z" transform="translate(-71.33 -53.78)" fill="#fff"/><path d="M288,208.71a3.36,3.36,0,0,0-1.53,2.66c0,1,.69,1.38,1.54.88l52.67-30.4a3.4,3.4,0,0,0,1.54-2.67c0-1-.7-1.37-1.55-.88Z" transform="translate(-71.33 -53.78)" fill="#fff"/><path d="M288,216.72a3.37,3.37,0,0,0-1.53,2.67c0,1,.69,1.37,1.54.88l52.67-30.41a3.39,3.39,0,0,0,1.54-2.67c0-1-.7-1.37-1.55-.88Z" transform="translate(-71.33 -53.78)" fill="#fff"/><path d="M288,184.19a3.39,3.39,0,0,0-1.53,2.67c0,1,.69,1.38,1.54.89l52.67-30.41a3.39,3.39,0,0,0,1.54-2.67c0-1-.7-1.38-1.55-.88Z" transform="translate(-71.33 -53.78)" fill="#fff"/><path d="M306.16,180.53a3.67,3.67,0,0,0-1.66,2.88c0,1.05.75,1.48,1.67,1l34-19.63a3.65,3.65,0,0,0,1.66-2.87c0-1.05-.75-1.48-1.67-1Z" transform="translate(-71.33 -53.78)" fill="#fff"/><polygon points="257.65 92.8 256.85 96.12 254.24 97.63 256.35 98.17 255.56 101.49 257.66 98.5 259.78 99.05 258.96 96.66 261.07 93.68 258.46 95.19 257.65 92.8" fill="#a5a5a5"/><polygon points="250.43 96.97 249.63 100.28 247.02 101.79 249.14 102.33 248.34 105.65 250.45 102.67 252.56 103.22 251.75 100.83 253.86 97.85 251.25 99.35 250.43 96.97" fill="#a5a5a5"/><polygon points="242.11 101.77 241.31 105.09 238.7 106.6 240.81 107.14 240.01 110.46 242.12 107.48 244.24 108.02 243.42 105.63 245.53 102.65 242.92 104.16 242.11 101.77" fill="#a5a5a5"/><polygon points="233.5 106.74 232.7 110.06 230.09 111.56 232.21 112.11 231.41 115.43 233.52 112.45 235.64 112.99 234.82 110.6 236.93 107.62 234.32 109.13 233.5 106.74" fill="#ff8b08"/><polygon points="225.73 111.23 224.93 114.55 222.32 116.05 224.44 116.59 223.64 119.91 225.75 116.93 227.86 117.47 227.05 115.09 229.16 112.11 226.55 113.61 225.73 111.23" fill="#ff8b08"/></g></g></svg>